<svg xmlns="http://www.w3.org/2000/svg" viewBox="0 0 292.8 81.9"><defs><style>.cls-1{isolation:isolate;}.cls-2{opacity:0.75;mix-blend-mode:multiply;}.cls-3{fill:#231f20;}.cls-4{fill:#fff;}.cls-5{fill:#f1bc46;}</style></defs><title>Asset 1</title><g class="cls-1"><g id="Layer_2" data-name="Layer 2"><g id="Layer_10" data-name="Layer 10"><g class="cls-2"><path class="cls-3" d="M106,22.64c9.53,0,15.63,4,15.63,10.3a9.07,9.07,0,0,1-6.91,8.77A10.12,10.12,0,0,1,122.88,52c0,7-6.27,11.39-16,11.39H86V22.64Zm-8,16h7.32c2.39,0,3.89-1.39,3.89-3.54s-1.5-3.37-3.89-3.37H98Zm0,15.74h7.32c3.08,0,5-1.5,5-3.89,0-2.2-1.92-3.6-5-3.6H98Z"/><path class="cls-3" d="M151.49,63.39V48.22H137V63.39H124.94V22.64H137V38.86h14.47V22.64h12.08V63.39Z"/><path class="cls-3" d="M209.62,43c0,12-9.41,20.93-22.19,20.93S165.23,55,165.23,43s9.42-20.67,22.2-20.67S209.62,31.07,209.62,43Zm-32,.07c0,6.16,4.65,10.75,10,10.75s9.65-4.59,9.65-10.75S193,32.41,187.6,32.41,177.61,36.89,177.61,43.05Z"/><path class="cls-3" d="M248.93,46.19c0,10.8-7.37,17.72-19,17.72S210.64,57,210.64,46.19V22.64h12.09V46.19c0,4.7,3.19,7.61,7.26,7.61s6.85-2.85,6.85-7.61V22.64h12.09Z"/><path class="cls-3" d="M292.77,63.39H278.24l-7.73-11.63L262.9,63.39H248.78l14.41-20.75-13.48-20h14.06l6.74,10.64,6.81-10.64h14.23L278.24,42.12Z"/><path class="cls-3" d="M263.52,71.87V65.65h.72v5.57H267v.65Z"/><path class="cls-3" d="M267.88,65.94a.49.49,0,0,1,.12-.36.47.47,0,0,1,.3-.11.49.49,0,0,1,.3.12.46.46,0,0,1,.12.35.47.47,0,0,1-.12.36.43.43,0,0,1-.3.11.39.39,0,0,1-.3-.11A.47.47,0,0,1,267.88,65.94Zm.77,5.93h-.71V67.21h.71Z"/><path class="cls-3" d="M276.09,71.87v-3a1.26,1.26,0,0,0-.24-.84.91.91,0,0,0-.73-.28,1.2,1.2,0,0,0-1,.38,1.8,1.8,0,0,0-.32,1.17v2.6h-.71v-3a1.26,1.26,0,0,0-.23-.84.92.92,0,0,0-.75-.28,1.16,1.16,0,0,0-1,.4,2.13,2.13,0,0,0-.31,1.3v2.45h-.71V67.21h.58l.11.63h0a1.37,1.37,0,0,1,.56-.53,1.68,1.68,0,0,1,.82-.19,1.39,1.39,0,0,1,1.43.79h0a1.55,1.55,0,0,1,.61-.58,1.86,1.86,0,0,1,.89-.21,1.65,1.65,0,0,1,1.2.4,1.87,1.87,0,0,1,.38,1.31v3Z"/><path class="cls-3" d="M278.2,65.94a.49.49,0,0,1,.12-.36.44.44,0,0,1,.59,0,.46.46,0,0,1,.12.35.47.47,0,0,1-.12.36.41.41,0,0,1-.3.11.38.38,0,0,1-.29-.11A.47.47,0,0,1,278.2,65.94Zm.76,5.93h-.7V67.21h.7Z"/><path class="cls-3" d="M282,71.38c.13,0,.24,0,.36,0l.28-.06v.54a1.09,1.09,0,0,1-.34.09,2,2,0,0,1-.4,0c-.91,0-1.36-.47-1.36-1.43V67.76h-.67v-.34l.67-.3.3-1h.41v1.08h1.36v.55h-1.36V70.5a.92.92,0,0,0,.2.65A.69.69,0,0,0,282,71.38Z"/><path class="cls-3" d="M285.52,72a2.13,2.13,0,0,1-1.64-.64,2.39,2.39,0,0,1-.6-1.74,2.75,2.75,0,0,1,.56-1.8,1.86,1.86,0,0,1,1.5-.66,1.77,1.77,0,0,1,1.38.57,2.24,2.24,0,0,1,.51,1.53v.45H284a1.74,1.74,0,0,0,.41,1.24,1.41,1.41,0,0,0,1.11.43A3.76,3.76,0,0,0,287,71v.63a4.84,4.84,0,0,1-.71.23A3.66,3.66,0,0,1,285.52,72Zm-.2-4.25a1.16,1.16,0,0,0-.89.37,1.63,1.63,0,0,0-.4,1h2.44a1.61,1.61,0,0,0-.29-1A1.07,1.07,0,0,0,285.32,67.71Z"/><path class="cls-3" d="M291.61,71.25h0a1.63,1.63,0,0,1-1.46.71,1.75,1.75,0,0,1-1.43-.63,3.36,3.36,0,0,1,0-3.56,1.71,1.71,0,0,1,1.43-.65,1.68,1.68,0,0,1,1.45.69h.06l0-.34,0-.32v-1.9h.71v6.62h-.58Zm-1.42.12a1.31,1.31,0,0,0,1.06-.39,2,2,0,0,0,.32-1.27v-.16a2.25,2.25,0,0,0-.33-1.41,1.26,1.26,0,0,0-1.05-.43,1.08,1.08,0,0,0-.95.49,2.37,2.37,0,0,0-.34,1.36,2.27,2.27,0,0,0,.34,1.35A1.08,1.08,0,0,0,290.19,71.37Z"/><path class="cls-3" d="M188.23,20.44l-.77-2H185l-.77,2h-.73l2.46-6.25h.61L189,20.44Zm-1-2.63-.72-1.93c-.09-.24-.19-.55-.3-.9a6.67,6.67,0,0,1-.26.9l-.74,1.93Z"/><path class="cls-3" d="M191.86,15.69a2.24,2.24,0,0,1,.55.05l-.09.65a2.5,2.5,0,0,0-.51-.06,1.23,1.23,0,0,0-1,.46,1.68,1.68,0,0,0-.4,1.14v2.51h-.71V15.77h.58l.08.86h0a2.13,2.13,0,0,1,.62-.7A1.47,1.47,0,0,1,191.86,15.69Z"/><path class="cls-3" d="M195.15,20.52a2,2,0,0,1-1.57-.62,2.62,2.62,0,0,1-.55-1.77,2.66,2.66,0,0,1,.56-1.8,2,2,0,0,1,1.62-.64,4,4,0,0,1,.67.07,2.11,2.11,0,0,1,.52.17l-.22.6a3.07,3.07,0,0,0-.51-.16,2.33,2.33,0,0,0-.49-.06c-1,0-1.42.61-1.42,1.82a2.13,2.13,0,0,0,.35,1.31,1.21,1.21,0,0,0,1,.47,2.91,2.91,0,0,0,1.19-.26v.63A2.53,2.53,0,0,1,195.15,20.52Z"/><path class="cls-3" d="M200.63,20.44v-3a1.23,1.23,0,0,0-.25-.85,1.06,1.06,0,0,0-.81-.28,1.36,1.36,0,0,0-1.08.39,2,2,0,0,0-.34,1.32v2.44h-.71V13.81h.71v2a5,5,0,0,1,0,.61h0a1.45,1.45,0,0,1,.59-.53,2,2,0,0,1,.89-.2,1.82,1.82,0,0,1,1.28.41,1.74,1.74,0,0,1,.43,1.29v3.05Z"/><path class="cls-3" d="M202.74,14.5a.57.57,0,0,1,.11-.36.5.5,0,0,1,.31-.1.46.46,0,0,1,.29.11.48.48,0,0,1,.12.35.46.46,0,0,1-.12.36.43.43,0,0,1-.6,0A.5.5,0,0,1,202.74,14.5Zm.76,5.94h-.71V15.77h.71Z"/><path class="cls-3" d="M206.51,19.94l.36,0a2.83,2.83,0,0,0,.28-.07v.54a1.09,1.09,0,0,1-.34.09,2,2,0,0,1-.41,0c-.89,0-1.35-.46-1.35-1.42V16.32h-.67V16l.67-.29.3-1h.41v1.08h1.35v.55h-1.35v2.74a.91.91,0,0,0,.2.65A.7.7,0,0,0,206.51,19.94Z"/><path class="cls-3" d="M210.05,20.52a2.18,2.18,0,0,1-1.64-.63,2.47,2.47,0,0,1-.59-1.75,2.7,2.7,0,0,1,.56-1.79,1.82,1.82,0,0,1,1.49-.66,1.76,1.76,0,0,1,1.38.57,2.24,2.24,0,0,1,.51,1.53v.45h-3.21a1.78,1.78,0,0,0,.42,1.24,1.41,1.41,0,0,0,1.11.43,3.81,3.81,0,0,0,1.49-.32v.63a3.42,3.42,0,0,1-.71.23A3.75,3.75,0,0,1,210.05,20.52Zm-.19-4.24a1.13,1.13,0,0,0-.9.37,1.69,1.69,0,0,0-.39,1H211a1.58,1.58,0,0,0-.3-1A1,1,0,0,0,209.86,16.28Z"/><path class="cls-3" d="M214.84,20.52a2,2,0,0,1-1.57-.62,2.57,2.57,0,0,1-.56-1.77,2.66,2.66,0,0,1,.56-1.8,2,2,0,0,1,1.62-.64,3.91,3.91,0,0,1,.67.07,2.2,2.2,0,0,1,.53.17l-.22.6a3.07,3.07,0,0,0-.51-.16,2.41,2.41,0,0,0-.49-.06c-1,0-1.43.61-1.43,1.82a2.06,2.06,0,0,0,.36,1.31,1.17,1.17,0,0,0,1,.47,2.88,2.88,0,0,0,1.19-.26v.63A2.51,2.51,0,0,1,214.84,20.52Z"/><path class="cls-3" d="M218.63,19.94l.36,0a2.26,2.26,0,0,0,.28-.07v.54a1.09,1.09,0,0,1-.34.09,2.07,2.07,0,0,1-.4,0c-.91,0-1.36-.46-1.36-1.42V16.32h-.66V16l.66-.29.31-1h.41v1.08h1.35v.55h-1.35v2.74a1,1,0,0,0,.19.65A.7.7,0,0,0,218.63,19.94Z"/><path class="cls-3" d="M220.87,15.77v3a1.19,1.19,0,0,0,.26.85,1,1,0,0,0,.81.28,1.3,1.3,0,0,0,1.07-.4,2,2,0,0,0,.34-1.31V15.77h.71v4.67h-.59l-.1-.63h0a1.43,1.43,0,0,1-.61.53,2.07,2.07,0,0,1-.88.18,1.76,1.76,0,0,1-1.27-.4,1.7,1.7,0,0,1-.42-1.29V15.77Z"/><path class="cls-3" d="M227.68,15.69a2.38,2.38,0,0,1,.56.05l-.1.65a2.49,2.49,0,0,0-.5-.06,1.25,1.25,0,0,0-1,.46,1.68,1.68,0,0,0-.39,1.14v2.51h-.72V15.77h.59l.08.86h0a2.27,2.27,0,0,1,.63-.7A1.44,1.44,0,0,1,227.68,15.69Z"/><path class="cls-3" d="M231.09,20.52a2.12,2.12,0,0,1-1.63-.63,2.43,2.43,0,0,1-.6-1.75,2.7,2.7,0,0,1,.55-1.79,1.87,1.87,0,0,1,1.49-.66,1.79,1.79,0,0,1,1.4.57,2.24,2.24,0,0,1,.5,1.53v.45h-3.21a1.88,1.88,0,0,0,.41,1.24,1.42,1.42,0,0,0,1.11.43,3.73,3.73,0,0,0,1.49-.32v.63a3.35,3.35,0,0,1-.7.23A3.81,3.81,0,0,1,231.09,20.52Zm-.19-4.24a1.13,1.13,0,0,0-.9.37,1.57,1.57,0,0,0-.39,1h2.44a1.64,1.64,0,0,0-.3-1A1,1,0,0,0,230.9,16.28Z"/><path class="cls-3" d="M235.36,13.81H236v8.74h-.61Z"/><path class="cls-3" d="M243.85,14.77a2,2,0,0,0-1.62.68,2.81,2.81,0,0,0-.6,1.88,2.8,2.8,0,0,0,.58,1.88,2.07,2.07,0,0,0,1.64.67,5.4,5.4,0,0,0,1.48-.24v.64a4.61,4.61,0,0,1-1.6.24,2.71,2.71,0,0,1-2.12-.83,3.44,3.44,0,0,1-.75-2.37,3.76,3.76,0,0,1,.36-1.69,2.68,2.68,0,0,1,1-1.12,3.29,3.29,0,0,1,1.6-.39,3.84,3.84,0,0,1,1.71.36l-.31.62A3.3,3.3,0,0,0,243.85,14.77Z"/><path class="cls-3" d="M250.61,18.1a2.53,2.53,0,0,1-.58,1.78,2,2,0,0,1-1.59.64,2,2,0,0,1-1.1-.29,1.86,1.86,0,0,1-.75-.84,2.92,2.92,0,0,1-.27-1.29,2.59,2.59,0,0,1,.57-1.78,2,2,0,0,1,1.59-.63,1.94,1.94,0,0,1,1.55.65A2.53,2.53,0,0,1,250.61,18.1Zm-3.56,0a2.18,2.18,0,0,0,.36,1.36,1.42,1.42,0,0,0,2.11,0,2.18,2.18,0,0,0,.36-1.36,2.15,2.15,0,0,0-.36-1.35,1.27,1.27,0,0,0-1.07-.46,1.23,1.23,0,0,0-1,.45A2.18,2.18,0,0,0,247.05,18.1Z"/><path class="cls-3" d="M255,20.44v-3a1.23,1.23,0,0,0-.25-.85,1.07,1.07,0,0,0-.82-.28,1.35,1.35,0,0,0-1.07.39,2,2,0,0,0-.34,1.31v2.45h-.71V15.77h.57l.12.64h0a1.4,1.4,0,0,1,.61-.54,2,2,0,0,1,.86-.18,1.76,1.76,0,0,1,1.27.4,1.71,1.71,0,0,1,.43,1.3v3.05Z"/><path class="cls-3" d="M260.21,19.17a1.16,1.16,0,0,1-.48,1,2.27,2.27,0,0,1-1.36.35,3,3,0,0,1-1.46-.29v-.65a3.51,3.51,0,0,0,.73.26,2.74,2.74,0,0,0,.74.1,1.65,1.65,0,0,0,.85-.18.58.58,0,0,0,.3-.54.59.59,0,0,0-.23-.46,3.55,3.55,0,0,0-.93-.46,4.9,4.9,0,0,1-.92-.42,1.33,1.33,0,0,1-.41-.41,1.07,1.07,0,0,1-.14-.55,1,1,0,0,1,.47-.9,2.15,2.15,0,0,1,1.27-.33,3.84,3.84,0,0,1,1.48.3l-.25.58a3.33,3.33,0,0,0-1.28-.29,1.46,1.46,0,0,0-.76.16.5.5,0,0,0-.26.44.49.49,0,0,0,.11.31.71.71,0,0,0,.3.25,7.73,7.73,0,0,0,.82.35,3.09,3.09,0,0,1,1.13.6A1.12,1.12,0,0,1,260.21,19.17Z"/><path class="cls-3" d="M262.87,19.94l.36,0a2.83,2.83,0,0,0,.28-.07v.54a1.09,1.09,0,0,1-.34.09,2,2,0,0,1-.41,0c-.89,0-1.35-.46-1.35-1.42V16.32h-.67V16l.67-.29.3-1h.4v1.08h1.36v.55h-1.36v2.74a.91.91,0,0,0,.21.65A.7.7,0,0,0,262.87,19.94Z"/><path class="cls-3" d="M266.57,15.69a2.24,2.24,0,0,1,.55.05l-.09.65a2.5,2.5,0,0,0-.51-.06,1.23,1.23,0,0,0-1,.46,1.64,1.64,0,0,0-.4,1.14v2.51h-.71V15.77H265l.08.86h0a2.13,2.13,0,0,1,.62-.7A1.47,1.47,0,0,1,266.57,15.69Z"/><path class="cls-3" d="M268.67,15.77v3a1.19,1.19,0,0,0,.26.85,1,1,0,0,0,.8.28,1.33,1.33,0,0,0,1.08-.4,2,2,0,0,0,.33-1.31V15.77h.72v4.67h-.59l-.1-.63h0a1.35,1.35,0,0,1-.6.53,2.07,2.07,0,0,1-.88.18,1.76,1.76,0,0,1-1.27-.4,1.7,1.7,0,0,1-.42-1.29V15.77Z"/><path class="cls-3" d="M275.22,20.52a2,2,0,0,1-1.57-.62,2.57,2.57,0,0,1-.56-1.77,2.66,2.66,0,0,1,.56-1.8,2,2,0,0,1,1.62-.64,3.7,3.7,0,0,1,.66.07,2.15,2.15,0,0,1,.54.17l-.22.6a3.07,3.07,0,0,0-.51-.16,2.41,2.41,0,0,0-.49-.06c-.95,0-1.43.61-1.43,1.82a2.06,2.06,0,0,0,.36,1.31,1.17,1.17,0,0,0,1,.47,3,3,0,0,0,1.2-.26v.63A2.61,2.61,0,0,1,275.22,20.52Z"/><path class="cls-3" d="M279,19.94l.36,0a2.56,2.56,0,0,0,.27-.07v.54a1.1,1.1,0,0,1-.33.09,2.17,2.17,0,0,1-.41,0c-.9,0-1.35-.46-1.35-1.42V16.32h-.67V16l.67-.29.3-1h.4v1.08h1.35v.55h-1.35v2.74a.91.91,0,0,0,.21.65A.69.69,0,0,0,279,19.94Z"/><path class="cls-3" d="M280.52,14.5a.53.53,0,0,1,.13-.36.48.48,0,0,1,.29-.1.46.46,0,0,1,.3.11.48.48,0,0,1,.12.35.46.46,0,0,1-.12.36.42.42,0,0,1-.3.12.4.4,0,0,1-.29-.12A.46.46,0,0,1,280.52,14.5Zm.78,5.94h-.71V15.77h.71Z"/><path class="cls-3" d="M286.82,18.1a2.53,2.53,0,0,1-.58,1.78,2,2,0,0,1-1.58.64,2,2,0,0,1-1.11-.29,1.86,1.86,0,0,1-.75-.84,2.78,2.78,0,0,1-.27-1.29,2.59,2.59,0,0,1,.57-1.78,2,2,0,0,1,1.59-.63,2,2,0,0,1,1.55.65A2.57,2.57,0,0,1,286.82,18.1Zm-3.56,0a2.18,2.18,0,0,0,.36,1.36,1.41,1.41,0,0,0,2.1,0,2.18,2.18,0,0,0,.37-1.36,2.15,2.15,0,0,0-.37-1.35,1.24,1.24,0,0,0-1.06-.46,1.27,1.27,0,0,0-1.05.45A2.25,2.25,0,0,0,283.26,18.1Z"/><path class="cls-3" d="M291.26,20.44v-3a1.24,1.24,0,0,0-.27-.85,1,1,0,0,0-.81-.28,1.35,1.35,0,0,0-1.07.39,2,2,0,0,0-.34,1.31v2.45h-.71V15.77h.57l.12.64h0a1.52,1.52,0,0,1,.61-.54,2.13,2.13,0,0,1,.88-.18,1.77,1.77,0,0,1,1.26.4,1.71,1.71,0,0,1,.43,1.3v3.05Z"/><polygon class="cls-3" points="73.86 52.22 20.01 17.16 20.01 10.18 73.86 49.16 73.86 52.22"/><polygon class="cls-3" points="73.86 57.67 20.01 29.76 20.01 22.77 73.86 54.85 73.86 57.67"/><polygon class="cls-3" points="73.86 65 48.96 55.95 48.96 50.03 73.86 61.16 73.86 65"/><polygon class="cls-3" points="37.55 50.39 20.01 43.54 20.01 36.98 44.34 47.82 37.55 50.39"/><polygon class="cls-3" points="0.31 40.1 20.01 10.18 20.01 17.16 0.3 44.04 0.31 40.1"/><polygon class="cls-3" points="0.31 47.31 20.01 22.77 20.01 29.44 0.28 50.92 0.31 47.31"/><polygon class="cls-3" points="0.28 55.52 20.01 36.98 20.01 43.54 0.31 58.66 0.28 55.52"/><polygon class="cls-3" points="39.66 18.51 48.98 10.93 48.96 0.28 35.13 14.92 39.66 18.51"/><polygon class="cls-3" points="73.81 40.77 48.98 18.14 48.98 25.9 73.87 45.7 73.81 40.77"/><polygon class="cls-3" points="73.86 29.64 48.96 0.28 48.98 10.93 73.85 35.94 73.86 29.64"/><polygon class="cls-3" points="0.31 66.31 48.96 50.03 48.96 55.95 0.28 69.13 0.31 66.31"/><polygon class="cls-3" points="0.31 71.24 48.96 60.74 48.98 67.54 0.28 74.26 0.31 71.24"/><polygon class="cls-3" points="0.31 77.89 48.96 73.54 48.98 80.34 0.31 80.34 0.31 77.89"/><polygon class="cls-3" points="62.93 64.79 62.93 70.19 73.86 72.27 73.86 67.95 48.96 60.74 48.98 67.54 58.38 69.33 58.38 63.49 62.93 64.79"/><rect class="cls-3" x="59.81" y="64.79" width="3.12" height="15.55"/><polygon class="cls-3" points="73.86 80.34 73.86 76.09 62.93 74.97 62.93 80.34 73.86 80.34"/><polygon class="cls-3" points="48.98 80.34 58.38 80.34 58.38 74.5 48.96 73.54 48.98 80.34"/><path class="cls-3" d="M238.61,80a.44.44,0,0,1,.1-.32.34.34,0,0,1,.27-.11.38.38,0,0,1,.29.11.44.44,0,0,1,.1.32.46.46,0,0,1-.1.32.41.41,0,0,1-.55,0A.41.41,0,0,1,238.61,80Z"/><path class="cls-3" d="M240.34,80a.44.44,0,0,1,.1-.32.34.34,0,0,1,.27-.11.38.38,0,0,1,.29.11.44.44,0,0,1,.1.32.46.46,0,0,1-.1.32.41.41,0,0,1-.55,0A.41.41,0,0,1,240.34,80Z"/><path class="cls-3" d="M242.07,80a.44.44,0,0,1,.1-.32.34.34,0,0,1,.27-.11.38.38,0,0,1,.29.11.44.44,0,0,1,.1.32.46.46,0,0,1-.1.32.41.41,0,0,1-.55,0A.41.41,0,0,1,242.07,80Z"/><path class="cls-3" d="M244,80.34V75.7h.54v4.15h2v.49Z"/><path class="cls-3" d="M247.74,76.86v2.26a.9.9,0,0,0,.2.63.78.78,0,0,0,.6.21,1,1,0,0,0,.8-.3,1.48,1.48,0,0,0,.25-1V76.86h.53v3.48h-.43l-.08-.47h0a1.07,1.07,0,0,1-.45.39,1.38,1.38,0,0,1-.65.14,1.32,1.32,0,0,1-.95-.3,1.29,1.29,0,0,1-.32-1V76.86Z"/><path class="cls-3" d="M252.08,78.56l-1.21-1.7h.6l.91,1.33.92-1.33h.59l-1.21,1.7L254,80.34h-.59l-1-1.41-1,1.41h-.6Z"/><path class="cls-3" d="M255.14,76.86v2.26a.9.9,0,0,0,.19.63.79.79,0,0,0,.61.21,1,1,0,0,0,.8-.3,1.55,1.55,0,0,0,.25-1V76.86h.52v3.48h-.43l-.07-.47h0a1.07,1.07,0,0,1-.45.39,1.39,1.39,0,0,1-.66.14,1.34,1.34,0,0,1-1-.3,1.29,1.29,0,0,1-.32-1V76.86Z"/><path class="cls-3" d="M260.22,76.8a2.77,2.77,0,0,1,.42,0l-.08.49a1.89,1.89,0,0,0-.38,0,.93.93,0,0,0-.72.35,1.24,1.24,0,0,0-.3.85v1.87h-.53V76.86h.44l.06.64h0a1.59,1.59,0,0,1,.47-.52A1.06,1.06,0,0,1,260.22,76.8Z"/><path class="cls-3" d="M260.73,76.86h.57l.76,2a7.4,7.4,0,0,1,.31,1h0c0-.1.08-.29.17-.55s.37-1.07.86-2.41H264l-1.5,4a1.94,1.94,0,0,1-.52.83,1.05,1.05,0,0,1-.72.25,1.86,1.86,0,0,1-.48-.06v-.42a1.51,1.51,0,0,0,.39,0,.79.79,0,0,0,.77-.61l.2-.49Z"/><path class="cls-3" d="M269.83,75.7v3a1.65,1.65,0,0,1-.48,1.25,1.83,1.83,0,0,1-1.31.45,1.75,1.75,0,0,1-1.3-.46,1.66,1.66,0,0,1-.46-1.25v-3h.54v3a1.22,1.22,0,0,0,.32.9,1.52,1.52,0,0,0,1.84,0,1.22,1.22,0,0,0,.31-.9v-3Z"/><path class="cls-3" d="M273.36,80.34V78.09a.91.91,0,0,0-.19-.64.79.79,0,0,0-.61-.21,1,1,0,0,0-.8.3,1.47,1.47,0,0,0-.25,1v1.83H271V76.86h.43l.09.47h0a1,1,0,0,1,.46-.39,1.38,1.38,0,0,1,.65-.14,1.31,1.31,0,0,1,.94.3,1.29,1.29,0,0,1,.32,1v2.27Z"/><path class="cls-3" d="M276.59,76.8a1.32,1.32,0,0,1,1.07.47,2.55,2.55,0,0,1,0,2.66,1.3,1.3,0,0,1-1.06.47,1.56,1.56,0,0,1-.62-.12,1.26,1.26,0,0,1-.47-.39h0l-.11.45H275V75.4h.53v1.2q0,.41,0,.72h0A1.24,1.24,0,0,1,276.59,76.8Zm-.08.44a.92.92,0,0,0-.77.31,2.4,2.4,0,0,0,0,2.09,1,1,0,0,0,.79.32.82.82,0,0,0,.72-.35,1.83,1.83,0,0,0,.24-1,1.73,1.73,0,0,0-.24-1A.83.83,0,0,0,276.51,77.24Z"/><path class="cls-3" d="M282,78.59a2,2,0,0,1-.43,1.33,1.68,1.68,0,0,1-2,.26,1.33,1.33,0,0,1-.56-.63,2.19,2.19,0,0,1-.2-1,1.89,1.89,0,0,1,.43-1.32,1.47,1.47,0,0,1,1.18-.47,1.49,1.49,0,0,1,1.16.48A1.93,1.93,0,0,1,282,78.59Zm-2.65,0a1.7,1.7,0,0,0,.26,1,1.06,1.06,0,0,0,1.57,0,1.63,1.63,0,0,0,.27-1,1.59,1.59,0,0,0-.27-1,.94.94,0,0,0-.79-.35,1,1,0,0,0-.78.34A1.62,1.62,0,0,0,279.31,78.59Z"/><path class="cls-3" d="M283.72,78.56l-1.21-1.7h.6l.92,1.33.91-1.33h.59l-1.2,1.7,1.27,1.78H285l-1-1.41-1,1.41h-.59Z"/><path class="cls-3" d="M287.76,80.4a1.61,1.61,0,0,1-1.22-.47,1.8,1.8,0,0,1-.45-1.3,2,2,0,0,1,.42-1.34,1.35,1.35,0,0,1,1.11-.49,1.31,1.31,0,0,1,1,.42,1.64,1.64,0,0,1,.38,1.14v.33h-2.39a1.35,1.35,0,0,0,.31.93,1.06,1.06,0,0,0,.82.32,3,3,0,0,0,1.12-.23v.46a2.77,2.77,0,0,1-.53.18A3.45,3.45,0,0,1,287.76,80.4Zm-.15-3.16a.87.87,0,0,0-.67.27,1.28,1.28,0,0,0-.29.75h1.82a1.15,1.15,0,0,0-.22-.76A.78.78,0,0,0,287.61,77.24Z"/><path class="cls-3" d="M292.3,79.87h0a1.23,1.23,0,0,1-1.09.53,1.3,1.3,0,0,1-1.06-.47,2.05,2.05,0,0,1-.38-1.32,2.12,2.12,0,0,1,.38-1.34,1.27,1.27,0,0,1,1.06-.47,1.29,1.29,0,0,1,1.09.51h0l0-.25V75.4h.53v4.94h-.43Zm-1.05.09a1,1,0,0,0,.78-.29,1.52,1.52,0,0,0,.24-1v-.11a1.78,1.78,0,0,0-.24-1.06,1,1,0,0,0-.79-.31.8.8,0,0,0-.71.36,1.82,1.82,0,0,0-.24,1,1.75,1.75,0,0,0,.24,1A.82.82,0,0,0,291.25,80Z"/></g><path class="cls-4" d="M105.69,22.36c9.53,0,15.63,4,15.63,10.29a9.08,9.08,0,0,1-6.92,8.78,10.1,10.1,0,0,1,8.2,10.28c0,7-6.28,11.39-16,11.39H85.7V22.36Zm-8,16h7.32c2.38,0,3.89-1.39,3.89-3.54s-1.51-3.36-3.89-3.36H97.73Zm0,15.75h7.32c3.08,0,5-1.51,5-3.89,0-2.21-1.91-3.6-5-3.6H97.73Z"/><path class="cls-4" d="M151.21,63.1V47.94H136.74V63.1H124.66V22.36h12.08V38.58h14.47V22.36h12.08V63.1Z"/><path class="cls-4" d="M209.34,42.7c0,12-9.42,20.93-22.19,20.93S165,54.74,165,42.7,174.36,22,187.15,22,209.34,30.79,209.34,42.7Zm-32,.06c0,6.16,4.64,10.76,10,10.76S197,48.92,197,42.76s-4.29-10.63-9.64-10.63S177.33,36.6,177.33,42.76Z"/><path class="cls-4" d="M248.65,45.91c0,10.8-7.38,17.72-19,17.72s-19.29-6.92-19.29-17.72V22.36h12.09V45.91c0,4.7,3.2,7.61,7.27,7.61s6.85-2.85,6.85-7.61V22.36h12.09Z"/><path class="cls-4" d="M292.49,63.1H278l-7.73-11.62L262.62,63.1H248.5l14.41-20.74-13.48-20h14.06L270.23,33,277,22.36h14.24L278,41.83Z"/><path class="cls-4" d="M263.24,71.59V65.37H264v5.56h2.74v.66Z"/><path class="cls-4" d="M267.6,65.66a.53.53,0,0,1,.11-.36.46.46,0,0,1,.6,0,.49.49,0,0,1,.12.36.45.45,0,0,1-.12.35.44.44,0,0,1-.6,0A.49.49,0,0,1,267.6,65.66Zm.76,5.93h-.71V66.92h.71Z"/><path class="cls-4" d="M275.81,71.59v-3a1.23,1.23,0,0,0-.24-.83.92.92,0,0,0-.74-.28,1.18,1.18,0,0,0-1,.38,1.85,1.85,0,0,0-.31,1.16v2.61h-.71v-3a1.23,1.23,0,0,0-.24-.83.92.92,0,0,0-.75-.28,1.13,1.13,0,0,0-1,.39,2.18,2.18,0,0,0-.31,1.31v2.45h-.71V66.92h.57l.12.64h0a1.39,1.39,0,0,1,.57-.53,1.67,1.67,0,0,1,.81-.19,1.39,1.39,0,0,1,1.43.78h0a1.65,1.65,0,0,1,.6-.57,1.93,1.93,0,0,1,.9-.21,1.57,1.57,0,0,1,1.19.4,1.79,1.79,0,0,1,.39,1.3v3Z"/><path class="cls-4" d="M277.92,65.66a.49.49,0,0,1,.11-.36.46.46,0,0,1,.3-.11.44.44,0,0,1,.29.11.49.49,0,0,1,.13.36.45.45,0,0,1-.13.35.4.4,0,0,1-.29.12A.42.42,0,0,1,278,66,.45.45,0,0,1,277.92,65.66Zm.76,5.93H278V66.92h.7Z"/><path class="cls-4" d="M281.69,71.09l.36,0,.28-.06v.53a.93.93,0,0,1-.34.09,2.17,2.17,0,0,1-.4.05c-.91,0-1.36-.47-1.36-1.43V67.47h-.67v-.34l.67-.29.3-1h.41v1.08h1.35v.55h-1.35v2.75a.89.89,0,0,0,.2.64A.69.69,0,0,0,281.69,71.09Z"/><path class="cls-4" d="M285.23,71.68A2.15,2.15,0,0,1,283.6,71a2.39,2.39,0,0,1-.6-1.74,2.78,2.78,0,0,1,.55-1.8,1.89,1.89,0,0,1,1.5-.66,1.78,1.78,0,0,1,1.39.57,2.24,2.24,0,0,1,.51,1.53v.45h-3.22a1.78,1.78,0,0,0,.42,1.24,1.41,1.41,0,0,0,1.11.43,3.76,3.76,0,0,0,1.48-.32v.64a3.76,3.76,0,0,1-1.51.3ZM285,67.43a1.16,1.16,0,0,0-.9.37,1.76,1.76,0,0,0-.4,1h2.45a1.53,1.53,0,0,0-.3-1A1,1,0,0,0,285,67.43Z"/><path class="cls-4" d="M291.33,71h0a1.66,1.66,0,0,1-1.46.72,1.76,1.76,0,0,1-1.43-.63,2.75,2.75,0,0,1-.51-1.78,2.79,2.79,0,0,1,.51-1.79,1.72,1.72,0,0,1,1.43-.64,1.68,1.68,0,0,1,1.45.69h.06l0-.34,0-.32V65H292v6.63h-.58Zm-1.42.13a1.33,1.33,0,0,0,1.06-.4,2,2,0,0,0,.32-1.27v-.15a2.3,2.3,0,0,0-.34-1.42,1.22,1.22,0,0,0-1-.42,1.06,1.06,0,0,0-1,.48,2.35,2.35,0,0,0-.34,1.37,2.32,2.32,0,0,0,.33,1.35A1.12,1.12,0,0,0,289.91,71.09Z"/><path class="cls-4" d="M188,20.15l-.78-2h-2.49l-.77,2h-.73l2.46-6.25h.61l2.45,6.25Zm-1-2.63-.73-1.92c-.09-.25-.19-.55-.29-.91a6.78,6.78,0,0,1-.26.91l-.74,1.92Z"/><path class="cls-4" d="M191.57,15.4a3.06,3.06,0,0,1,.56,0l-.09.66a2.5,2.5,0,0,0-.51-.06,1.24,1.24,0,0,0-1,.45,1.68,1.68,0,0,0-.4,1.15v2.5h-.71V15.49H190l.08.86h0a2.43,2.43,0,0,1,.63-.71A1.53,1.53,0,0,1,191.57,15.4Z"/><path class="cls-4" d="M194.87,20.24a2,2,0,0,1-1.57-.62,2.64,2.64,0,0,1-.56-1.77,2.62,2.62,0,0,1,.57-1.8,2,2,0,0,1,1.61-.65,3.81,3.81,0,0,1,.67.07,2.76,2.76,0,0,1,.53.17l-.22.61a3.07,3.07,0,0,0-.51-.16,2.33,2.33,0,0,0-.49-.06c-1,0-1.42.6-1.42,1.81a2.1,2.1,0,0,0,.35,1.32,1.19,1.19,0,0,0,1,.46,3.1,3.1,0,0,0,1.19-.25V20A2.46,2.46,0,0,1,194.87,20.24Z"/><path class="cls-4" d="M200.35,20.15v-3a1.21,1.21,0,0,0-.25-.84,1,1,0,0,0-.82-.29,1.37,1.37,0,0,0-1.08.4,2.1,2.1,0,0,0-.33,1.32v2.43h-.71V13.53h.71v2a4.77,4.77,0,0,1,0,.61h0a1.41,1.41,0,0,1,.59-.54,1.93,1.93,0,0,1,.88-.19,1.79,1.79,0,0,1,1.28.41,1.69,1.69,0,0,1,.43,1.29v3Z"/><path class="cls-4" d="M202.45,14.22a.49.49,0,0,1,.12-.36.5.5,0,0,1,.3-.11.47.47,0,0,1,.3.12.46.46,0,0,1,.12.35.47.47,0,0,1-.12.36.41.41,0,0,1-.3.11.4.4,0,0,1-.3-.11A.47.47,0,0,1,202.45,14.22Zm.77,5.93h-.71V15.49h.71Z"/><path class="cls-4" d="M206.22,19.66c.13,0,.25,0,.36,0l.29-.06v.54a1.09,1.09,0,0,1-.34.09,2.1,2.1,0,0,1-.41,0c-.9,0-1.35-.47-1.35-1.42V16h-.67V15.7l.67-.3.29-1h.41v1.08h1.36V16h-1.36v2.74a.92.92,0,0,0,.21.65A.69.69,0,0,0,206.22,19.66Z"/><path class="cls-4" d="M209.76,20.24a2.15,2.15,0,0,1-1.63-.63,2.43,2.43,0,0,1-.6-1.75,2.7,2.7,0,0,1,.56-1.79,1.83,1.83,0,0,1,1.49-.67A1.77,1.77,0,0,1,211,16a2.21,2.21,0,0,1,.51,1.53V18h-3.21a1.75,1.75,0,0,0,.42,1.24,1.4,1.4,0,0,0,1.1.43,3.76,3.76,0,0,0,1.49-.31v.63a3.65,3.65,0,0,1-.71.23A3.75,3.75,0,0,1,209.76,20.24ZM209.57,16a1.16,1.16,0,0,0-.89.37,1.72,1.72,0,0,0-.4,1h2.45a1.55,1.55,0,0,0-.3-1A1,1,0,0,0,209.57,16Z"/><path class="cls-4" d="M214.56,20.24a2,2,0,0,1-1.58-.62,2.64,2.64,0,0,1-.55-1.77,2.62,2.62,0,0,1,.56-1.8,2,2,0,0,1,1.61-.65,3.71,3.71,0,0,1,.67.07,2.36,2.36,0,0,1,.53.17l-.21.61a3.53,3.53,0,0,0-.52-.16,2.24,2.24,0,0,0-.48-.06c-1,0-1.43.6-1.43,1.81a2,2,0,0,0,.36,1.32,1.16,1.16,0,0,0,1,.46,3,3,0,0,0,1.19-.25V20A2.41,2.41,0,0,1,214.56,20.24Z"/><path class="cls-4" d="M218.35,19.66c.13,0,.24,0,.36,0l.28-.06v.54a1.18,1.18,0,0,1-.34.09,2.07,2.07,0,0,1-.4,0c-.91,0-1.36-.47-1.36-1.42V16h-.67V15.7l.67-.3.3-1h.41v1.08H219V16H217.6v2.74a.92.92,0,0,0,.2.65A.69.69,0,0,0,218.35,19.66Z"/><path class="cls-4" d="M220.59,15.49v3a1.2,1.2,0,0,0,.26.85,1.07,1.07,0,0,0,.81.28,1.32,1.32,0,0,0,1.07-.4,2.08,2.08,0,0,0,.34-1.31V15.49h.71v4.66h-.59l-.1-.62h0a1.32,1.32,0,0,1-.6.52,2,2,0,0,1-.88.19,1.8,1.8,0,0,1-1.28-.4,1.77,1.77,0,0,1-.42-1.3v-3Z"/><path class="cls-4" d="M227.4,15.4a3.15,3.15,0,0,1,.56,0l-.1.66a2.5,2.5,0,0,0-.51-.06,1.26,1.26,0,0,0-1,.45,1.73,1.73,0,0,0-.4,1.15v2.5h-.71V15.49h.59l.08.86h0a2.27,2.27,0,0,1,.62-.71A1.56,1.56,0,0,1,227.4,15.4Z"/><path class="cls-4" d="M230.8,20.24a2.14,2.14,0,0,1-1.63-.63,2.47,2.47,0,0,1-.6-1.75,2.7,2.7,0,0,1,.56-1.79,1.83,1.83,0,0,1,1.49-.67A1.77,1.77,0,0,1,232,16a2.21,2.21,0,0,1,.51,1.53V18H229.3a1.84,1.84,0,0,0,.42,1.24,1.42,1.42,0,0,0,1.11.43,3.76,3.76,0,0,0,1.49-.31v.63a4.06,4.06,0,0,1-.7.23A3.92,3.92,0,0,1,230.8,20.24ZM230.62,16a1.17,1.17,0,0,0-.9.37,1.66,1.66,0,0,0-.4,1h2.44a1.61,1.61,0,0,0-.29-1A1.07,1.07,0,0,0,230.62,16Z"/><path class="cls-4" d="M235.08,13.53h.6v8.74h-.6Z"/><path class="cls-4" d="M243.57,14.49a2,2,0,0,0-1.62.68,2.73,2.73,0,0,0-.6,1.87,2.81,2.81,0,0,0,.58,1.89,2,2,0,0,0,1.63.67,5.52,5.52,0,0,0,1.49-.24V20a4.41,4.41,0,0,1-1.6.25,2.73,2.73,0,0,1-2.13-.83,3.5,3.5,0,0,1-.74-2.38,3.74,3.74,0,0,1,.36-1.68,2.55,2.55,0,0,1,1-1.12,3.23,3.23,0,0,1,1.61-.39,3.84,3.84,0,0,1,1.71.36l-.31.62A3.3,3.3,0,0,0,243.57,14.49Z"/><path class="cls-4" d="M250.33,17.81a2.55,2.55,0,0,1-.58,1.79,2,2,0,0,1-1.59.64,2.19,2.19,0,0,1-1.11-.29,2,2,0,0,1-.75-.85,3,3,0,0,1-.26-1.29,2.56,2.56,0,0,1,.57-1.77,2.22,2.22,0,0,1,3.14,0A2.52,2.52,0,0,1,250.33,17.81Zm-3.56,0a2.22,2.22,0,0,0,.36,1.37,1.41,1.41,0,0,0,2.1,0,2.13,2.13,0,0,0,.36-1.37,2.11,2.11,0,0,0-.36-1.35,1.28,1.28,0,0,0-1.06-.46,1.24,1.24,0,0,0-1,.46A2.13,2.13,0,0,0,246.77,17.81Z"/><path class="cls-4" d="M254.76,20.15v-3a1.21,1.21,0,0,0-.26-.84,1,1,0,0,0-.81-.29,1.37,1.37,0,0,0-1.08.4,2,2,0,0,0-.34,1.31v2.44h-.7V15.49h.57l.12.64h0a1.4,1.4,0,0,1,.61-.54,2.06,2.06,0,0,1,.87-.19,1.81,1.81,0,0,1,1.27.4,1.74,1.74,0,0,1,.43,1.31v3Z"/><path class="cls-4" d="M259.92,18.88a1.16,1.16,0,0,1-.47,1,2.35,2.35,0,0,1-1.37.35,3.05,3.05,0,0,1-1.45-.29v-.66a3,3,0,0,0,.73.27,3.21,3.21,0,0,0,.74.1,1.68,1.68,0,0,0,.85-.18.58.58,0,0,0,.29-.54.59.59,0,0,0-.23-.47,3.6,3.6,0,0,0-.93-.45,5.62,5.62,0,0,1-.92-.42,1.44,1.44,0,0,1-.4-.42,1.07,1.07,0,0,1-.14-.55,1,1,0,0,1,.47-.9,2.13,2.13,0,0,1,1.27-.33,3.63,3.63,0,0,1,1.47.31l-.25.58a3.28,3.28,0,0,0-1.27-.3,1.51,1.51,0,0,0-.76.16.5.5,0,0,0-.26.44.6.6,0,0,0,.1.32.82.82,0,0,0,.31.25,6.87,6.87,0,0,0,.82.35,3,3,0,0,1,1.12.6A1.11,1.11,0,0,1,259.92,18.88Z"/><path class="cls-4" d="M262.58,19.66c.13,0,.25,0,.37,0l.27-.06v.54a1,1,0,0,1-.33.09,2.1,2.1,0,0,1-.41,0c-.9,0-1.35-.47-1.35-1.42V16h-.67V15.7l.67-.3.3-1h.4v1.08h1.36V16h-1.36v2.74a.92.92,0,0,0,.21.65A.69.69,0,0,0,262.58,19.66Z"/><path class="cls-4" d="M266.28,15.4a3.06,3.06,0,0,1,.56,0l-.09.66a2.5,2.5,0,0,0-.51-.06,1.26,1.26,0,0,0-1,.45,1.68,1.68,0,0,0-.4,1.15v2.5h-.71V15.49h.58l.08.86h0a2.43,2.43,0,0,1,.63-.71A1.56,1.56,0,0,1,266.28,15.4Z"/><path class="cls-4" d="M268.39,15.49v3a1.2,1.2,0,0,0,.26.85,1.06,1.06,0,0,0,.8.28,1.34,1.34,0,0,0,1.08-.4,2.08,2.08,0,0,0,.33-1.31V15.49h.71v4.66H271l-.09-.62h0a1.37,1.37,0,0,1-.6.52,2,2,0,0,1-.89.19,1.79,1.79,0,0,1-1.27-.4,1.73,1.73,0,0,1-.42-1.3v-3Z"/><path class="cls-4" d="M274.94,20.24a2,2,0,0,1-1.57-.62,2.59,2.59,0,0,1-.56-1.77,2.62,2.62,0,0,1,.56-1.8A2,2,0,0,1,275,15.4a3.91,3.91,0,0,1,.67.07,2.36,2.36,0,0,1,.53.17l-.21.61a3.8,3.8,0,0,0-.51-.16A2.49,2.49,0,0,0,275,16c-.94,0-1.42.6-1.42,1.81a2.1,2.1,0,0,0,.35,1.32,1.19,1.19,0,0,0,1,.46,3.06,3.06,0,0,0,1.19-.25V20A2.41,2.41,0,0,1,274.94,20.24Z"/><path class="cls-4" d="M278.73,19.66c.13,0,.24,0,.36,0l.28-.06v.54a1.09,1.09,0,0,1-.34.09,2,2,0,0,1-.4,0c-.91,0-1.35-.47-1.35-1.42V16h-.67V15.7l.67-.3.29-1H278v1.08h1.35V16H278v2.74a1,1,0,0,0,.2.65A.7.7,0,0,0,278.73,19.66Z"/><path class="cls-4" d="M280.24,14.22a.49.49,0,0,1,.13-.36.47.47,0,0,1,.29-.11.49.49,0,0,1,.3.12.46.46,0,0,1,.12.35.47.47,0,0,1-.12.36.43.43,0,0,1-.3.11.38.38,0,0,1-.29-.11A.48.48,0,0,1,280.24,14.22Zm.77,5.93h-.71V15.49H281Z"/><path class="cls-4" d="M286.53,17.81A2.6,2.6,0,0,1,286,19.6a2,2,0,0,1-1.58.64,2.17,2.17,0,0,1-1.12-.29,2,2,0,0,1-.75-.85,2.86,2.86,0,0,1-.26-1.29,2.51,2.51,0,0,1,.57-1.77,2.22,2.22,0,0,1,3.14,0A2.56,2.56,0,0,1,286.53,17.81Zm-3.55,0a2.22,2.22,0,0,0,.36,1.37,1.21,1.21,0,0,0,1,.47,1.23,1.23,0,0,0,1.06-.47,2.19,2.19,0,0,0,.37-1.37,2.17,2.17,0,0,0-.37-1.35,1.44,1.44,0,0,0-2.11,0A2.2,2.2,0,0,0,283,17.81Z"/><path class="cls-4" d="M291,20.15v-3a1.21,1.21,0,0,0-.26-.84,1,1,0,0,0-.82-.29,1.33,1.33,0,0,0-1.06.4,2,2,0,0,0-.34,1.31v2.44h-.72V15.49h.58l.11.64h0a1.45,1.45,0,0,1,.61-.54,2.06,2.06,0,0,1,.87-.19,1.82,1.82,0,0,1,1.27.4,1.74,1.74,0,0,1,.43,1.31v3Z"/><polygon class="cls-5" points="73.57 51.93 19.73 16.88 19.73 9.9 73.57 48.87 73.57 51.93"/><polygon class="cls-5" points="73.57 57.39 19.73 29.47 19.73 22.49 73.57 54.56 73.57 57.39"/><polygon class="cls-5" points="73.57 64.72 48.68 55.66 48.68 49.74 73.57 60.88 73.57 64.72"/><polygon class="cls-5" points="37.27 50.11 19.73 43.26 19.73 36.7 44.05 47.54 37.27 50.11"/><polygon class="cls-5" points="0.03 39.81 19.73 9.9 19.73 16.88 0.02 43.76 0.03 39.81"/><polygon class="cls-5" points="0.03 47.03 19.73 22.49 19.73 29.15 0 50.64 0.03 47.03"/><polygon class="cls-5" points="0 55.24 19.73 36.7 19.73 43.26 0.02 58.38 0 55.24"/><polygon class="cls-5" points="39.38 18.23 48.69 10.65 48.68 0 34.85 14.63 39.38 18.23"/><polygon class="cls-5" points="73.52 40.48 48.69 17.86 48.69 25.61 73.58 45.42 73.52 40.48"/><polygon class="cls-5" points="73.58 29.36 48.68 0 48.69 10.65 73.57 35.66 73.58 29.36"/><polygon class="cls-5" points="0.02 66.03 48.68 49.74 48.68 55.66 0 68.84 0.02 66.03"/><polygon class="cls-5" points="0.02 70.95 48.67 60.46 48.69 67.26 0 73.97 0.02 70.95"/><polygon class="cls-5" points="0.02 77.61 48.67 73.26 48.69 80.06 0.02 80.06 0.02 77.61"/><polygon class="cls-5" points="62.65 64.51 62.65 69.91 73.57 71.99 73.57 67.67 48.67 60.46 48.69 67.26 58.09 69.05 58.09 63.21 62.65 64.51"/><rect class="cls-5" x="59.53" y="64.51" width="3.12" height="15.55"/><polygon class="cls-5" points="73.57 80.06 73.57 75.81 62.65 74.68 62.65 80.06 73.57 80.06"/><polygon class="cls-5" points="48.69 80.06 58.09 80.06 58.09 74.22 48.67 73.25 48.69 80.06"/><path class="cls-4" d="M238.33,79.72a.54.54,0,0,1,.09-.33.37.37,0,0,1,.28-.1.39.39,0,0,1,.29.1.48.48,0,0,1,.1.33.46.46,0,0,1-.1.32.39.39,0,0,1-.29.1.36.36,0,0,1-.27-.1A.41.41,0,0,1,238.33,79.72Z"/><path class="cls-4" d="M240.06,79.72a.54.54,0,0,1,.09-.33.37.37,0,0,1,.28-.1.39.39,0,0,1,.29.1.48.48,0,0,1,.1.33.46.46,0,0,1-.1.32.39.39,0,0,1-.29.1.36.36,0,0,1-.27-.1A.41.41,0,0,1,240.06,79.72Z"/><path class="cls-4" d="M241.79,79.72a.54.54,0,0,1,.09-.33.37.37,0,0,1,.28-.1.39.39,0,0,1,.29.1.48.48,0,0,1,.1.33.51.51,0,0,1-.1.32.39.39,0,0,1-.29.1.36.36,0,0,1-.27-.1A.41.41,0,0,1,241.79,79.72Z"/><path class="cls-4" d="M243.67,80.05V75.41h.54v4.15h2v.49Z"/><path class="cls-4" d="M247.46,76.57v2.26a.91.91,0,0,0,.19.64.81.81,0,0,0,.61.21,1,1,0,0,0,.8-.3,1.52,1.52,0,0,0,.25-1V76.57h.53v3.48h-.44l-.07-.46h0a1.07,1.07,0,0,1-.45.39,1.53,1.53,0,0,1-.66.14,1.29,1.29,0,0,1-.95-.31,1.26,1.26,0,0,1-.31-1V76.57Z"/><path class="cls-4" d="M251.79,78.27l-1.21-1.7h.6l.92,1.34.91-1.34h.6l-1.21,1.7,1.27,1.78h-.6l-1-1.41-1,1.41h-.6Z"/><path class="cls-4" d="M254.85,76.57v2.26a.91.91,0,0,0,.2.64.79.79,0,0,0,.61.21,1,1,0,0,0,.79-.3,1.51,1.51,0,0,0,.26-1V76.57h.52v3.48h-.43l-.08-.46h0a1.07,1.07,0,0,1-.45.39,1.51,1.51,0,0,1-.65.14,1.29,1.29,0,0,1-1-.31,1.26,1.26,0,0,1-.32-1V76.57Z"/><path class="cls-4" d="M259.94,76.51a1.73,1.73,0,0,1,.41,0l-.07.49a1.89,1.89,0,0,0-.38-.05,1,1,0,0,0-.72.34,1.27,1.27,0,0,0-.3.86v1.86h-.53V76.57h.43l.06.65h0a1.49,1.49,0,0,1,.47-.52A1,1,0,0,1,259.94,76.51Z"/><path class="cls-4" d="M260.45,76.57H261l.76,2a8.67,8.67,0,0,1,.31,1h0c0-.11.09-.29.18-.55s.37-1.07.86-2.42h.56l-1.49,4a1.94,1.94,0,0,1-.52.83,1.13,1.13,0,0,1-.73.25,1.84,1.84,0,0,1-.47-.06v-.42a2.13,2.13,0,0,0,.39,0,.81.81,0,0,0,.77-.61l.19-.5Z"/><path class="cls-4" d="M269.55,75.41v3a1.61,1.61,0,0,1-.48,1.24,1.86,1.86,0,0,1-1.32.46,1.77,1.77,0,0,1-1.29-.46A1.67,1.67,0,0,1,266,78.4v-3h.54v3a1.14,1.14,0,0,0,.32.89,1.26,1.26,0,0,0,.93.31,1.22,1.22,0,0,0,.9-.31,1.17,1.17,0,0,0,.32-.89v-3Z"/><path class="cls-4" d="M273.08,80.05V77.8a1,1,0,0,0-.19-.63.81.81,0,0,0-.61-.21,1,1,0,0,0-.8.29,1.52,1.52,0,0,0-.25,1v1.82h-.53V76.57h.43l.08.48h0a1.17,1.17,0,0,1,.45-.4,1.55,1.55,0,0,1,.65-.14,1.34,1.34,0,0,1,1,.3,1.32,1.32,0,0,1,.32,1v2.27Z"/><path class="cls-4" d="M276.31,76.52a1.27,1.27,0,0,1,1.06.47,2,2,0,0,1,.38,1.32,2.09,2.09,0,0,1-.38,1.33,1.29,1.29,0,0,1-1.06.48,1.52,1.52,0,0,1-.62-.13,1.09,1.09,0,0,1-.47-.38h0l-.11.44h-.38V75.12h.53v1.19c0,.27,0,.51,0,.73h0A1.24,1.24,0,0,1,276.31,76.52Zm-.08.44a.92.92,0,0,0-.78.31,1.79,1.79,0,0,0-.23,1,1.77,1.77,0,0,0,.24,1,.92.92,0,0,0,.78.32.81.81,0,0,0,.73-.36,1.79,1.79,0,0,0,.24-1,1.73,1.73,0,0,0-.24-1A.86.86,0,0,0,276.23,77Z"/><path class="cls-4" d="M281.67,78.31a2,2,0,0,1-.42,1.33,1.52,1.52,0,0,1-1.19.48,1.63,1.63,0,0,1-.83-.22,1.56,1.56,0,0,1-.56-.63,2.19,2.19,0,0,1-.19-1A1.9,1.9,0,0,1,278.9,77a1.51,1.51,0,0,1,1.18-.48,1.44,1.44,0,0,1,1.16.49A1.88,1.88,0,0,1,281.67,78.31Zm-2.65,0a1.65,1.65,0,0,0,.27,1,1.06,1.06,0,0,0,1.57,0,2,2,0,0,0,0-2,.94.94,0,0,0-.79-.34.9.9,0,0,0-.78.34A1.6,1.6,0,0,0,279,78.31Z"/><path class="cls-4" d="M283.44,78.27l-1.21-1.7h.6l.91,1.34.92-1.34h.59L284,78.27l1.27,1.78h-.59l-1-1.41-1,1.41h-.6Z"/><path class="cls-4" d="M287.47,80.12a1.63,1.63,0,0,1-1.22-.47,1.87,1.87,0,0,1-.44-1.31,2,2,0,0,1,.41-1.33,1.39,1.39,0,0,1,1.12-.5,1.29,1.29,0,0,1,1,.43,1.69,1.69,0,0,1,.38,1.14v.33h-2.39a1.35,1.35,0,0,0,.31.93,1.06,1.06,0,0,0,.82.32,2.71,2.71,0,0,0,1.11-.24v.47a2.32,2.32,0,0,1-.53.17A2.52,2.52,0,0,1,287.47,80.12ZM287.33,77a.87.87,0,0,0-.67.27,1.34,1.34,0,0,0-.29.76h1.82a1.13,1.13,0,0,0-.23-.76A.76.76,0,0,0,287.33,77Z"/><path class="cls-4" d="M292,79.59h0a1.24,1.24,0,0,1-1.09.53,1.32,1.32,0,0,1-1.07-.47,2.07,2.07,0,0,1-.37-1.33,2,2,0,0,1,.38-1.33,1.26,1.26,0,0,1,1.06-.48A1.24,1.24,0,0,1,292,77h0l0-.25V75.12h.53v4.93h-.43Zm-1.06.09a1,1,0,0,0,.79-.3,1.47,1.47,0,0,0,.24-.94v-.12a1.69,1.69,0,0,0-.25-1A.92.92,0,0,0,291,77a.8.8,0,0,0-.71.36,1.75,1.75,0,0,0-.25,1,1.69,1.69,0,0,0,.25,1A.83.83,0,0,0,291,79.68Z"/></g></g></g></svg>