<svg width="19" height="18" viewBox="0 0 19 18" fill="none" xmlns="http://www.w3.org/2000/svg">
<path d="M12.0685 4.46771C11.5153 4.44361 11.3489 4.43935 9.94817 4.43935C8.54738 4.43935 8.38175 4.44432 7.82863 4.46771C6.40536 4.52939 5.74282 5.16672 5.67761 6.50236C5.65288 7.02555 5.64689 7.18222 5.64689 8.50723C5.64689 9.83223 5.65288 9.9889 5.67761 10.5128C5.74282 11.8449 6.40236 12.4858 7.82863 12.5474C8.381 12.5708 8.54738 12.5765 9.94817 12.5765C11.3497 12.5765 11.5153 12.5716 12.0685 12.5474C13.4917 12.4865 14.1535 11.847 14.2195 10.5128C14.2442 9.98961 14.2494 9.83223 14.2494 8.50723C14.2494 7.18222 14.2442 7.02555 14.2195 6.50236C14.1535 5.16743 13.4902 4.52939 12.0685 4.46771ZM9.94817 11.0558C8.46044 11.0558 7.25378 9.91517 7.25378 8.50723C7.25378 7.09999 8.46044 5.95931 9.94817 5.95931C11.4359 5.95931 12.6426 7.09999 12.6426 8.50723C12.6426 9.91446 11.4359 11.0558 9.94817 11.0558ZM12.749 6.45415C12.4012 6.45415 12.1194 6.18759 12.1194 5.85864C12.1194 5.5297 12.4012 5.26314 12.749 5.26314C13.0967 5.26314 13.3785 5.5297 13.3785 5.85864C13.3785 6.18688 13.0967 6.45415 12.749 6.45415ZM11.6967 8.50723C11.6967 9.42104 10.9135 10.1612 9.94817 10.1612C8.98283 10.1612 8.19962 9.42104 8.19962 8.50723C8.19962 7.59341 8.98283 6.85328 9.94817 6.85328C10.9135 6.85328 11.6967 7.59341 11.6967 8.50723ZM9.94817 0C4.98135 0 0.954376 3.80911 0.954376 8.50723C0.954376 13.2053 4.98135 17.0145 9.94817 17.0145C14.915 17.0145 18.942 13.2053 18.942 8.50723C18.942 3.80911 14.915 0 9.94817 0ZM15.1631 10.5532C15.0769 12.3575 14.0149 13.3571 12.1119 13.44C11.5521 13.4641 11.3729 13.4698 9.94817 13.4698C8.5234 13.4698 8.34502 13.4641 7.78516 13.44C5.87848 13.3571 4.82096 12.356 4.73327 10.5532C4.70778 10.0243 4.70179 9.85491 4.70179 8.50723C4.70179 7.15954 4.70778 6.99081 4.73327 6.46124C4.82096 4.65771 5.87923 3.6574 7.78516 3.57516C8.34502 3.55035 8.5234 3.54468 9.94817 3.54468C11.3729 3.54468 11.5521 3.55035 12.1119 3.57516C14.0194 3.65811 15.0776 4.66125 15.1631 6.46124C15.1885 6.99081 15.1945 7.15954 15.1945 8.50723C15.1945 9.85491 15.1885 10.0243 15.1631 10.5532Z" fill="white"/>
</svg>
