<svg width="159" height="45" viewBox="0 0 159 45" fill="none" xmlns="http://www.w3.org/2000/svg">
<g style="mix-blend-mode:multiply" opacity="0.75">
<g style="mix-blend-mode:multiply" opacity="0.75">
<path d="M57.3201 12.2427C62.4735 12.2427 65.7721 14.4057 65.7721 17.8125C65.7674 18.9064 65.3971 19.9675 64.72 20.8268C64.043 21.6861 63.098 22.2944 62.0355 22.5549C63.3126 22.8061 64.4583 23.5043 65.267 24.5241C66.0757 25.5439 66.4944 26.8186 66.4481 28.1193C66.4481 31.9046 63.0575 34.2785 57.796 34.2785H46.505V12.2427H57.3201ZM52.9941 20.8948H56.9524C58.2448 20.8948 59.0559 20.1431 59.0559 18.9805C59.0559 17.8179 58.2448 17.1581 56.9524 17.1581H52.9941V20.8948ZM52.9941 29.4063H56.9524C58.6179 29.4063 59.6562 28.5951 59.6562 27.3027C59.6562 26.1131 58.6179 25.356 56.9524 25.356H52.9941V29.4063Z" fill="#231F20"/>
</g>
<g style="mix-blend-mode:multiply" opacity="0.75">
<path d="M81.9192 34.2785V26.0752H74.0836V34.2785H67.5621V12.2427H74.0836V21.0137H81.9084V12.2427H88.4407V34.2785H81.9192Z" fill="#231F20"/>
</g>
<g style="mix-blend-mode:multiply" opacity="0.75">
<path d="M113.353 23.2525C113.353 29.7415 108.265 34.5705 101.354 34.5705C94.443 34.5705 89.3491 29.7415 89.3491 23.2525C89.3491 16.7634 94.443 12.075 101.354 12.075C108.265 12.075 113.353 16.8012 113.353 23.2525ZM96.0491 23.2903C96.0491 26.6214 98.5636 29.1034 101.457 29.1034C104.35 29.1034 106.675 26.6214 106.675 23.2903C106.675 19.9593 104.366 17.5259 101.446 17.5259C98.5257 17.5259 96.0437 19.9484 96.0437 23.2795L96.0491 23.2903Z" fill="#231F20"/>
</g>
<g style="mix-blend-mode:multiply" opacity="0.75">
<path d="M134.61 24.9775C134.61 30.8176 130.625 34.5597 124.336 34.5597C118.047 34.5597 113.905 30.823 113.905 24.9775V12.2427H120.443V24.9775C120.443 27.519 122.168 29.0926 124.368 29.0926C126.569 29.0926 128.073 27.5515 128.073 24.9775V12.2427H134.61V24.9775Z" fill="#231F20"/>
</g>
<g style="mix-blend-mode:multiply" opacity="0.75">
<path d="M158.317 34.2785H150.46L146.28 27.9895L142.165 34.2785H134.529L142.321 23.0578L135.032 12.2427H142.635L146.28 17.9963L149.962 12.2427H157.657L150.46 22.7766L158.317 34.2785Z" fill="#231F20"/>
</g>
<g style="mix-blend-mode:multiply" opacity="0.75">
<path d="M142.5 38.864V35.5005H142.889V38.5126H144.382V38.864H142.5Z" fill="#231F20"/>
</g>
<g style="mix-blend-mode:multiply" opacity="0.75">
<path d="M144.858 35.6574C144.855 35.6223 144.859 35.5869 144.871 35.5535C144.882 35.5201 144.899 35.4892 144.923 35.4627C144.968 35.4245 145.025 35.4035 145.085 35.4032C145.145 35.4059 145.202 35.4288 145.247 35.4681C145.27 35.4935 145.288 35.5234 145.299 35.5559C145.311 35.5885 145.315 35.6231 145.312 35.6574C145.315 35.6926 145.311 35.728 145.3 35.7616C145.289 35.7951 145.271 35.8259 145.247 35.8521C145.203 35.892 145.145 35.9133 145.085 35.9115C145.055 35.9136 145.025 35.9094 144.997 35.8992C144.969 35.8889 144.944 35.8729 144.923 35.8521C144.899 35.8259 144.881 35.7951 144.87 35.7616C144.858 35.728 144.854 35.6926 144.858 35.6574V35.6574ZM145.274 38.8641H144.89V36.3441H145.274V38.8641Z" fill="#231F20"/>
</g>
<g style="mix-blend-mode:multiply" opacity="0.75">
<path d="M149.297 38.864V37.2418C149.31 37.0797 149.264 36.9186 149.167 36.7875C149.117 36.7346 149.055 36.6935 148.987 36.6673C148.919 36.6411 148.846 36.6304 148.773 36.6361C148.673 36.6262 148.572 36.6396 148.478 36.6753C148.384 36.7109 148.3 36.7679 148.232 36.8416C148.103 37.0261 148.042 37.2497 148.059 37.4743V38.8803H147.675V37.258C147.689 37.0966 147.645 36.9356 147.551 36.8038C147.499 36.7496 147.435 36.7079 147.365 36.6816C147.295 36.6554 147.22 36.6454 147.145 36.6524C147.044 36.642 146.942 36.6563 146.848 36.6939C146.754 36.7316 146.67 36.7916 146.604 36.8687C146.474 37.0789 146.416 37.3254 146.437 37.5716V38.8965H146.053V36.3441H146.366L146.426 36.6848C146.497 36.5622 146.602 36.4628 146.729 36.3982C146.865 36.3269 147.018 36.2915 147.172 36.2955C147.33 36.2759 147.489 36.3067 147.628 36.3835C147.767 36.4602 147.878 36.5789 147.945 36.7227V36.7227C148.024 36.5897 148.138 36.4811 148.275 36.409C148.424 36.3317 148.589 36.2927 148.757 36.2955C148.874 36.2871 148.991 36.3018 149.103 36.339C149.214 36.3761 149.317 36.4348 149.405 36.5118C149.561 36.7136 149.634 36.9666 149.611 37.2201V38.8424L149.297 38.864Z" fill="#231F20"/>
</g>
<g style="mix-blend-mode:multiply" opacity="0.75">
<path d="M150.438 35.6574C150.436 35.6223 150.44 35.587 150.451 35.5535C150.462 35.5201 150.48 35.4892 150.503 35.4627C150.547 35.4232 150.604 35.4013 150.663 35.4013C150.722 35.4013 150.778 35.4232 150.822 35.4627C150.845 35.4881 150.863 35.518 150.874 35.5506C150.886 35.5831 150.89 35.6177 150.887 35.652C150.89 35.6872 150.886 35.7227 150.875 35.7562C150.864 35.7897 150.846 35.8205 150.822 35.8467C150.8 35.8669 150.775 35.8826 150.747 35.8929C150.719 35.9031 150.69 35.9076 150.66 35.9062C150.631 35.9078 150.602 35.9034 150.575 35.8931C150.548 35.8829 150.524 35.8671 150.503 35.8467C150.48 35.8212 150.462 35.7912 150.451 35.7587C150.44 35.7262 150.436 35.6917 150.438 35.6574V35.6574ZM150.849 38.8641H150.471V36.3442H150.849V38.8641Z" fill="#231F20"/>
</g>
<g style="mix-blend-mode:multiply" opacity="0.75">
<path d="M152.493 38.5991C152.563 38.5991 152.623 38.5991 152.688 38.5991L152.839 38.5667V38.8587C152.781 38.8848 152.719 38.9012 152.655 38.9074C152.583 38.9146 152.511 38.9146 152.439 38.9074C151.947 38.9074 151.704 38.6532 151.704 38.1341V36.6416H151.341V36.4577L151.704 36.2955L151.866 35.7548H152.088V36.3388H152.823V36.6362H152.088V38.1233C152.077 38.2499 152.116 38.3757 152.196 38.4748C152.233 38.5164 152.279 38.5492 152.33 38.5707C152.382 38.5922 152.437 38.602 152.493 38.5991Z" fill="#231F20"/>
</g>
<g style="mix-blend-mode:multiply" opacity="0.75">
<path d="M154.397 38.9343C154.233 38.9432 154.069 38.9169 153.916 38.8572C153.763 38.7975 153.624 38.7058 153.51 38.5882C153.396 38.4606 153.309 38.3118 153.253 38.1503C153.198 37.9888 153.175 37.8178 153.185 37.6473C153.168 37.2973 153.276 36.9526 153.488 36.674C153.587 36.5565 153.712 36.4632 153.852 36.4014C153.993 36.3395 154.146 36.3107 154.299 36.3171C154.439 36.311 154.578 36.3354 154.706 36.3887C154.835 36.4419 154.951 36.5227 155.046 36.6253C155.237 36.8573 155.335 37.1522 155.321 37.4527V37.696H153.575C153.559 37.9398 153.638 38.1803 153.796 38.3665C153.873 38.4467 153.967 38.5091 154.071 38.5492C154.174 38.5894 154.286 38.6064 154.397 38.5991C154.675 38.5861 154.947 38.5161 155.197 38.3936V38.7343C155.072 38.7855 154.944 38.8271 154.813 38.8586C154.677 38.8987 154.538 38.9241 154.397 38.9343V38.9343ZM154.288 36.6361C154.199 36.633 154.109 36.6493 154.026 36.6838C153.943 36.7183 153.868 36.7703 153.807 36.8362C153.676 36.9867 153.6 37.1774 153.591 37.377H154.91C154.919 37.1843 154.864 36.9941 154.754 36.8362C154.698 36.7658 154.628 36.7092 154.547 36.6707C154.466 36.6323 154.378 36.613 154.288 36.6145V36.6361Z" fill="#231F20"/>
</g>
<g style="mix-blend-mode:multiply" opacity="0.75">
<path d="M157.69 38.5288C157.603 38.6562 157.485 38.7587 157.346 38.8261C157.208 38.8934 157.054 38.9233 156.9 38.9127C156.754 38.9198 156.608 38.8926 156.473 38.8335C156.339 38.7744 156.221 38.6849 156.127 38.5721C155.947 38.2834 155.851 37.9499 155.851 37.6095C155.851 37.2692 155.947 36.9356 156.127 36.647C156.218 36.5309 156.336 36.4383 156.471 36.3772C156.605 36.316 156.753 36.288 156.9 36.2955C157.052 36.2873 157.203 36.3171 157.34 36.3823C157.477 36.4475 157.595 36.5459 157.684 36.6686H157.717V36.4847V36.3117V35.2843H158.101V38.8641H157.787L157.69 38.5288ZM156.922 38.5937C157.027 38.6035 157.133 38.5897 157.232 38.5532C157.332 38.5167 157.421 38.4585 157.495 38.3828C157.628 38.1798 157.689 37.9379 157.668 37.696V37.6095C157.694 37.3426 157.632 37.0746 157.49 36.8471C157.42 36.7666 157.332 36.7036 157.233 36.6633C157.135 36.6229 157.028 36.6062 156.922 36.6145C156.821 36.6103 156.72 36.6325 156.63 36.679C156.54 36.7255 156.463 36.7946 156.408 36.8795C156.274 37.1005 156.21 37.3569 156.224 37.6149C156.208 37.8715 156.272 38.1269 156.408 38.345C156.465 38.4269 156.543 38.4928 156.633 38.5364C156.723 38.5799 156.822 38.5997 156.922 38.5937V38.5937Z" fill="#231F20"/>
</g>
<g style="mix-blend-mode:multiply" opacity="0.75">
<path d="M101.786 11.053L101.37 9.97149H100.04L99.6234 11.053H99.2286L100.559 7.67328H100.889L102.203 11.053H101.786ZM101.246 9.63081L100.856 8.58716C100.808 8.45737 100.754 8.28974 100.694 8.10048C100.659 8.2658 100.612 8.42843 100.553 8.58716L100.153 9.63081H101.246Z" fill="#231F20"/>
</g>
<g style="mix-blend-mode:multiply" opacity="0.75">
<path d="M103.749 8.48442C103.849 8.48113 103.949 8.49021 104.047 8.51146L103.998 8.86295C103.908 8.8427 103.815 8.83183 103.722 8.83051C103.619 8.82712 103.516 8.84784 103.423 8.89101C103.329 8.93419 103.246 8.99864 103.182 9.07925C103.035 9.25081 102.958 9.47052 102.965 9.69571V11.053H102.581V8.52768H102.895L102.938 8.99273C103.021 8.84328 103.135 8.71399 103.273 8.6142C103.414 8.52158 103.581 8.47613 103.749 8.48442V8.48442Z" fill="#231F20"/>
</g>
<g style="mix-blend-mode:multiply" opacity="0.75">
<path d="M105.528 11.0963C105.371 11.1057 105.213 11.0805 105.067 11.0226C104.92 10.9647 104.788 10.8754 104.679 10.761C104.467 10.4889 104.361 10.1485 104.382 9.80387C104.361 9.45333 104.468 9.10712 104.685 8.83051C104.795 8.7105 104.932 8.61703 105.083 8.5571C105.235 8.49716 105.398 8.47232 105.561 8.48443C105.683 8.48684 105.804 8.4995 105.923 8.52228C106.021 8.54059 106.115 8.5715 106.204 8.61421L106.085 8.93867C105.996 8.90186 105.904 8.87291 105.81 8.85214C105.723 8.83198 105.634 8.8211 105.545 8.8197C105.004 8.8197 104.777 9.14956 104.777 9.80387C104.761 10.0543 104.827 10.3031 104.966 10.5123C105.03 10.5945 105.112 10.6605 105.206 10.7047C105.3 10.7489 105.403 10.77 105.507 10.7664C105.729 10.7655 105.948 10.7176 106.15 10.6258V10.9665C105.956 11.058 105.743 11.1024 105.528 11.0963V11.0963Z" fill="#231F20"/>
</g>
<g style="mix-blend-mode:multiply" opacity="0.75">
<path d="M108.492 11.053V9.43078C108.505 9.26609 108.457 9.10224 108.357 8.97113C108.298 8.9168 108.229 8.87526 108.154 8.84919C108.078 8.82312 107.998 8.81308 107.919 8.81972C107.812 8.81016 107.704 8.82408 107.603 8.86051C107.502 8.89694 107.411 8.955 107.335 9.03062C107.192 9.23968 107.127 9.49229 107.151 9.74442V11.0639H106.767V7.46783H107.151V8.54935C107.157 8.6592 107.157 8.76936 107.151 8.87921V8.87921C107.228 8.75588 107.339 8.65663 107.47 8.59261C107.62 8.51996 107.784 8.48295 107.951 8.48445C108.202 8.46734 108.449 8.54665 108.643 8.70616C108.727 8.80087 108.791 8.91145 108.83 9.0313C108.87 9.15114 108.886 9.27781 108.876 9.40374V11.053H108.492Z" fill="#231F20"/>
</g>
<g style="mix-blend-mode:multiply" opacity="0.75">
<path d="M109.633 7.8409C109.63 7.77115 109.651 7.70251 109.692 7.64623C109.741 7.61 109.8 7.59096 109.86 7.59215C109.917 7.59323 109.973 7.61425 110.017 7.65164C110.04 7.67732 110.057 7.70728 110.068 7.73977C110.079 7.77225 110.084 7.80663 110.082 7.8409C110.085 7.8761 110.081 7.91167 110.07 7.94524C110.059 7.97881 110.041 8.00961 110.017 8.03557C109.973 8.07785 109.915 8.10151 109.854 8.10151C109.794 8.10151 109.736 8.07785 109.692 8.03557C109.648 7.98091 109.627 7.91106 109.633 7.8409ZM110.044 11.053H109.66V8.52766H110.044V11.053Z" fill="#231F20"/>
</g>
<g style="mix-blend-mode:multiply" opacity="0.75">
<path d="M111.671 10.7827H111.866C111.917 10.7726 111.968 10.76 112.018 10.7448V11.0368C111.959 11.0629 111.897 11.0793 111.834 11.0855C111.76 11.0931 111.686 11.0931 111.612 11.0855C111.131 11.0855 110.882 10.8367 110.882 10.3176V8.82511H110.52V8.65207L110.882 8.49525L111.044 7.9545H111.266V8.53851H111.996V8.83593H111.266V10.3176C111.255 10.4443 111.294 10.5703 111.374 10.6691C111.412 10.7085 111.459 10.739 111.51 10.7587C111.562 10.7783 111.617 10.7865 111.671 10.7827Z" fill="#231F20"/>
</g>
<g style="mix-blend-mode:multiply" opacity="0.75">
<path d="M113.586 11.0963C113.422 11.1041 113.259 11.0779 113.106 11.0192C112.954 10.9606 112.815 10.8708 112.699 10.7556C112.474 10.4933 112.36 10.1541 112.38 9.80925C112.362 9.46078 112.469 9.1174 112.683 8.8413C112.78 8.72329 112.904 8.62959 113.043 8.56763C113.183 8.50568 113.336 8.47718 113.488 8.4844C113.628 8.47794 113.767 8.5022 113.896 8.55546C114.025 8.60873 114.14 8.6897 114.235 8.79263C114.426 9.02461 114.524 9.31953 114.51 9.61999V9.86333H112.775C112.762 10.1076 112.844 10.3473 113.002 10.5339C113.079 10.614 113.172 10.6764 113.276 10.7166C113.38 10.7567 113.491 10.7737 113.602 10.7664C113.879 10.7636 114.154 10.7047 114.408 10.5934V10.934C114.285 10.9894 114.156 11.0311 114.024 11.0584C113.88 11.0869 113.733 11.0995 113.586 11.0963V11.0963ZM113.483 8.80345C113.392 8.79844 113.301 8.8138 113.217 8.84842C113.133 8.88304 113.057 8.93603 112.996 9.00353C112.869 9.15607 112.795 9.3459 112.785 9.54428H114.099C114.108 9.35086 114.051 9.16019 113.937 9.00353C113.883 8.93633 113.813 8.8831 113.734 8.84829C113.655 8.81349 113.569 8.79811 113.483 8.80345Z" fill="#231F20"/>
</g>
<g style="mix-blend-mode:multiply" opacity="0.75">
<path d="M116.176 11.0963C116.019 11.1057 115.861 11.0805 115.714 11.0226C115.568 10.9647 115.435 10.8754 115.327 10.761C115.11 10.4908 115.002 10.1495 115.024 9.80387C115.003 9.45333 115.111 9.10712 115.327 8.83051C115.437 8.7105 115.574 8.61703 115.725 8.5571C115.877 8.49716 116.04 8.47232 116.203 8.48443C116.325 8.4866 116.446 8.49927 116.565 8.52228C116.664 8.54067 116.761 8.57156 116.852 8.61421L116.733 8.93867C116.644 8.90186 116.551 8.87291 116.457 8.85214C116.37 8.83229 116.281 8.82142 116.192 8.8197C115.651 8.8197 115.419 9.14956 115.419 9.80387C115.402 10.0552 115.47 10.3049 115.614 10.5123C115.676 10.5959 115.758 10.6629 115.852 10.7072C115.946 10.7515 116.05 10.7719 116.154 10.7664C116.376 10.766 116.596 10.718 116.798 10.6258V10.9665C116.604 11.0583 116.391 11.1028 116.176 11.0963V11.0963Z" fill="#231F20"/>
</g>
<g style="mix-blend-mode:multiply" opacity="0.75">
<path d="M118.225 10.7827H118.42C118.471 10.7733 118.522 10.7606 118.572 10.7448V11.0368C118.513 11.0629 118.451 11.0793 118.388 11.0855C118.316 11.0925 118.243 11.0925 118.171 11.0855C117.679 11.0855 117.436 10.8367 117.436 10.3176V8.82511H117.079V8.65207L117.436 8.49525L117.604 7.9545H117.825V8.53851H118.555V8.83593H117.825V10.3176C117.818 10.4431 117.854 10.5674 117.928 10.6691C117.966 10.7085 118.013 10.739 118.064 10.7587C118.116 10.7783 118.171 10.7865 118.225 10.7827V10.7827Z" fill="#231F20"/>
</g>
<g style="mix-blend-mode:multiply" opacity="0.75">
<path d="M119.437 8.52765V10.1499C119.422 10.3155 119.473 10.4803 119.577 10.6096C119.635 10.6657 119.704 10.7084 119.779 10.7346C119.855 10.7608 119.936 10.7698 120.015 10.761C120.122 10.7714 120.229 10.7573 120.33 10.7198C120.43 10.6823 120.52 10.6224 120.594 10.5447C120.736 10.3371 120.801 10.0866 120.778 9.83628V8.52765H121.162V11.053H120.843L120.789 10.7123C120.709 10.8376 120.594 10.9371 120.459 10.9989C120.309 11.0658 120.147 11.099 119.983 11.0962C119.734 11.1169 119.488 11.0392 119.296 10.8799C119.212 10.7855 119.149 10.6748 119.11 10.5548C119.071 10.4348 119.057 10.308 119.069 10.1824V8.52765H119.437Z" fill="#231F20"/>
</g>
<g style="mix-blend-mode:multiply" opacity="0.75">
<path d="M123.119 8.48444C123.221 8.48146 123.323 8.49053 123.422 8.51148L123.368 8.86297C123.279 8.84305 123.189 8.83217 123.098 8.83052C122.995 8.82797 122.892 8.84906 122.798 8.89217C122.705 8.93529 122.622 8.99929 122.557 9.07927C122.413 9.25162 122.338 9.47124 122.346 9.69573V11.053H121.957V8.5277H122.276L122.319 8.99275C122.405 8.84415 122.521 8.7152 122.66 8.61422C122.795 8.52388 122.956 8.47849 123.119 8.48444V8.48444Z" fill="#231F20"/>
</g>
<g style="mix-blend-mode:multiply" opacity="0.75">
<path d="M124.963 11.0963C124.801 11.1054 124.638 11.0797 124.486 11.021C124.334 10.9622 124.196 10.8718 124.082 10.7556C123.853 10.4953 123.736 10.1552 123.757 9.80927C123.738 9.46147 123.843 9.11816 124.055 8.84132C124.153 8.72488 124.277 8.63229 124.417 8.57048C124.556 8.50867 124.708 8.47925 124.86 8.48442C125.001 8.47747 125.142 8.50146 125.273 8.5547C125.404 8.60795 125.521 8.68916 125.618 8.79265C125.807 9.02541 125.903 9.32025 125.888 9.62001V9.86335H124.152C124.143 10.1062 124.222 10.344 124.374 10.5339C124.451 10.6138 124.545 10.6759 124.648 10.7161C124.752 10.7562 124.863 10.7734 124.974 10.7664C125.252 10.7648 125.526 10.7059 125.78 10.5934V10.934C125.659 10.9893 125.532 11.031 125.401 11.0584C125.257 11.0866 125.11 11.0993 124.963 11.0963V11.0963ZM124.86 8.80347C124.77 8.79845 124.679 8.81382 124.594 8.84843C124.51 8.88305 124.435 8.93605 124.374 9.00355C124.242 9.15342 124.167 9.34487 124.163 9.5443H125.482C125.489 9.35119 125.432 9.16131 125.32 9.00355C125.265 8.93557 125.195 8.88187 125.115 8.84703C125.035 8.81218 124.948 8.79724 124.86 8.80347Z" fill="#231F20"/>
</g>
<g style="mix-blend-mode:multiply" opacity="0.75">
<path d="M127.272 7.46783H127.618V12.194H127.288L127.272 7.46783Z" fill="#231F20"/>
</g>
<g style="mix-blend-mode:multiply" opacity="0.75">
<path d="M131.863 7.98688C131.699 7.97745 131.535 8.00567 131.383 8.0694C131.231 8.13312 131.096 8.23067 130.987 8.3546C130.76 8.6431 130.645 9.00426 130.663 9.37122C130.641 9.73687 130.752 10.0981 130.976 10.3878C131.088 10.5101 131.226 10.606 131.379 10.6687C131.533 10.7313 131.698 10.7591 131.863 10.7501C132.135 10.7443 132.404 10.7006 132.664 10.6204V10.9664C132.385 11.0604 132.092 11.1043 131.798 11.0962C131.586 11.109 131.374 11.0755 131.176 10.998C130.978 10.9205 130.799 10.8009 130.652 10.6474C130.362 10.2857 130.217 9.82863 130.246 9.36581C130.24 9.0502 130.306 8.73732 130.441 8.45193C130.56 8.20265 130.748 7.99252 130.982 7.84629C131.248 7.70378 131.545 7.63121 131.847 7.63539C132.166 7.62835 132.483 7.69497 132.772 7.83006L132.604 8.16533C132.373 8.0532 132.12 7.99233 131.863 7.98688V7.98688Z" fill="#231F20"/>
</g>
<g style="mix-blend-mode:multiply" opacity="0.75">
<path d="M135.519 9.78759C135.541 10.1367 135.429 10.4812 135.205 10.7501C135.096 10.8679 134.963 10.9601 134.814 11.0199C134.665 11.0798 134.505 11.1059 134.345 11.0962C134.136 11.1026 133.929 11.0481 133.75 10.9394C133.572 10.8335 133.43 10.6748 133.345 10.4852C133.244 10.2668 133.194 10.0282 133.199 9.78759C133.178 9.43956 133.288 9.09635 133.507 8.82505C133.616 8.70822 133.75 8.61708 133.899 8.55817C134.047 8.49926 134.207 8.47405 134.367 8.48437C134.524 8.47636 134.681 8.50379 134.826 8.56463C134.971 8.62547 135.101 8.71817 135.205 8.83586C135.426 9.10202 135.538 9.4421 135.519 9.78759V9.78759ZM133.594 9.78759C133.576 10.0475 133.644 10.3061 133.788 10.523C133.86 10.6029 133.948 10.6668 134.047 10.7106C134.145 10.7543 134.251 10.7769 134.359 10.7769C134.466 10.7769 134.573 10.7543 134.671 10.7106C134.769 10.6668 134.857 10.6029 134.929 10.523C135.074 10.3061 135.142 10.0475 135.124 9.78759C135.142 9.52936 135.074 9.27245 134.929 9.05757C134.86 8.97296 134.771 8.90623 134.67 8.86296C134.57 8.81968 134.46 8.80112 134.351 8.80882C134.248 8.80479 134.146 8.82467 134.052 8.8669C133.958 8.90912 133.875 8.97254 133.81 9.05216C133.658 9.26636 133.582 9.5252 133.594 9.78759Z" fill="#231F20"/>
</g>
<g style="mix-blend-mode:multiply" opacity="0.75">
<path d="M137.893 11.0531V9.43079C137.906 9.2661 137.858 9.10225 137.758 8.97114C137.698 8.91638 137.628 8.87462 137.552 8.84854C137.475 8.82247 137.395 8.81265 137.314 8.81973C137.208 8.8106 137.101 8.82475 137.001 8.86118C136.902 8.89761 136.811 8.95544 136.736 9.03063C136.594 9.23822 136.529 9.4887 136.552 9.73902V11.0639H136.168V8.52772H136.476L136.541 8.87381C136.619 8.74593 136.734 8.64429 136.871 8.5818C137.017 8.51528 137.175 8.48204 137.336 8.48446C137.584 8.46385 137.831 8.54151 138.023 8.70077C138.108 8.7956 138.172 8.907 138.212 9.02797C138.252 9.14894 138.267 9.27688 138.255 9.40375V11.0531H137.893Z" fill="#231F20"/>
</g>
<g style="mix-blend-mode:multiply" opacity="0.75">
<path d="M140.71 10.3662C140.715 10.4709 140.694 10.5752 140.649 10.6696C140.604 10.7641 140.535 10.8457 140.45 10.907C140.232 11.0462 139.974 11.1125 139.715 11.0962C139.443 11.1111 139.171 11.0572 138.926 10.9394V10.5879C139.052 10.6492 139.184 10.6964 139.32 10.7285C139.451 10.7647 139.585 10.7829 139.72 10.7826C139.88 10.7918 140.038 10.7582 140.18 10.6853C140.232 10.6568 140.275 10.6143 140.303 10.5627C140.332 10.511 140.346 10.4523 140.342 10.3933C140.342 10.3451 140.33 10.2977 140.309 10.2546C140.287 10.2115 140.256 10.1739 140.218 10.1445C140.063 10.0374 139.894 9.9536 139.715 9.89576C139.542 9.83742 139.375 9.76131 139.218 9.66864C139.128 9.61195 139.053 9.53624 138.996 9.44693C138.944 9.35642 138.918 9.25367 138.92 9.14952C138.915 9.0531 138.936 8.95711 138.981 8.87152C139.026 8.78594 139.092 8.71388 139.174 8.66284C139.379 8.53325 139.619 8.47086 139.861 8.48439C140.136 8.48496 140.408 8.5401 140.661 8.64662L140.526 8.96025C140.308 8.86258 140.073 8.80927 139.834 8.80344C139.692 8.79464 139.55 8.82454 139.423 8.88996C139.38 8.9133 139.345 8.94773 139.32 8.9896C139.295 9.03148 139.282 9.07925 139.282 9.12789C139.282 9.18895 139.303 9.24817 139.342 9.29552C139.382 9.35486 139.439 9.4017 139.504 9.43071C139.648 9.50228 139.796 9.56547 139.948 9.61998C140.172 9.68431 140.38 9.79483 140.559 9.94443C140.661 10.0605 140.715 10.2114 140.71 10.3662V10.3662Z" fill="#231F20"/>
</g>
<g style="mix-blend-mode:multiply" opacity="0.75">
<path d="M142.148 10.7827H142.343C142.394 10.7726 142.445 10.76 142.495 10.7448V11.0368C142.436 11.0629 142.374 11.0793 142.311 11.0855C142.237 11.0931 142.163 11.0931 142.089 11.0855C141.608 11.0855 141.359 10.8367 141.359 10.3176V8.82511H140.997V8.65207L141.359 8.49525L141.521 7.9545H141.737V8.53851H142.473V8.83593H141.737V10.3176C141.728 10.4451 141.769 10.5711 141.851 10.6691C141.889 10.7085 141.936 10.739 141.987 10.7587C142.039 10.7783 142.094 10.7865 142.148 10.7827V10.7827Z" fill="#231F20"/>
</g>
<g style="mix-blend-mode:multiply" opacity="0.75">
<path d="M144.149 8.48443C144.249 8.48114 144.349 8.49023 144.447 8.51147L144.398 8.86296C144.307 8.84271 144.215 8.83184 144.122 8.83052C144.019 8.82713 143.916 8.84785 143.822 8.89103C143.729 8.9342 143.646 8.99865 143.581 9.07927C143.434 9.24974 143.356 9.4702 143.365 9.69573V11.053H142.981V8.52769H143.3L143.343 8.99274C143.426 8.84329 143.54 8.714 143.679 8.61422C143.818 8.52269 143.983 8.47729 144.149 8.48443V8.48443Z" fill="#231F20"/>
</g>
<g style="mix-blend-mode:multiply" opacity="0.75">
<path d="M145.285 8.52765V10.1499C145.271 10.3155 145.321 10.4803 145.425 10.6096C145.482 10.6649 145.55 10.7072 145.625 10.7334C145.7 10.7595 145.779 10.769 145.858 10.761C145.965 10.771 146.074 10.7568 146.175 10.7193C146.276 10.6819 146.367 10.6222 146.442 10.5447C146.582 10.3364 146.645 10.086 146.621 9.83628V8.52765H147.01V11.053H146.691L146.637 10.7123C146.56 10.8384 146.447 10.9384 146.312 10.9989C146.163 11.0658 146 11.099 145.836 11.0962C145.588 11.1169 145.341 11.0392 145.15 10.8799C145.066 10.7855 145.003 10.6748 144.963 10.5548C144.924 10.4348 144.91 10.308 144.923 10.1824V8.52765H145.285Z" fill="#231F20"/>
</g>
<g style="mix-blend-mode:multiply" opacity="0.75">
<path d="M148.827 11.0963C148.669 11.1057 148.512 11.0805 148.365 11.0226C148.219 10.9647 148.086 10.8754 147.978 10.761C147.761 10.4908 147.653 10.1495 147.675 9.80387C147.654 9.45333 147.761 9.10712 147.978 8.83051C148.088 8.7105 148.224 8.61703 148.376 8.5571C148.528 8.49716 148.691 8.47232 148.854 8.48443C148.974 8.48633 149.093 8.499 149.211 8.52228C149.312 8.53992 149.41 8.57083 149.503 8.61421L149.384 8.93867C149.295 8.90186 149.202 8.87291 149.108 8.85214C149.021 8.83229 148.932 8.82142 148.843 8.8197C148.329 8.8197 148.07 9.14956 148.07 9.80387C148.053 10.0552 148.121 10.3049 148.264 10.5123C148.327 10.5959 148.409 10.6629 148.503 10.7072C148.597 10.7515 148.701 10.7719 148.805 10.7664C149.029 10.7648 149.25 10.7169 149.454 10.6258V10.9665C149.258 11.0573 149.043 11.1017 148.827 11.0963V11.0963Z" fill="#231F20"/>
</g>
<g style="mix-blend-mode:multiply" opacity="0.75">
<path d="M150.871 10.7827H151.065C151.115 10.7727 151.164 10.7601 151.211 10.7448V11.0368C151.155 11.0622 151.095 11.0787 151.033 11.0855C150.959 11.0925 150.885 11.0925 150.811 11.0855C150.325 11.0855 150.081 10.8367 150.081 10.3176V8.82511H149.719V8.65207L150.081 8.49525L150.244 7.9545H150.46V8.53851H151.19V8.83593H150.46V10.3176C150.451 10.4451 150.491 10.5711 150.573 10.6691C150.612 10.7088 150.658 10.7395 150.709 10.7592C150.761 10.7788 150.816 10.7868 150.871 10.7827V10.7827Z" fill="#231F20"/>
</g>
<g style="mix-blend-mode:multiply" opacity="0.75">
<path d="M151.693 7.84091C151.691 7.76953 151.716 7.70011 151.763 7.64624C151.808 7.61155 151.863 7.59255 151.92 7.59216C151.979 7.59197 152.037 7.61307 152.082 7.65165C152.105 7.67733 152.122 7.70729 152.134 7.73978C152.145 7.77226 152.149 7.80664 152.147 7.84091C152.151 7.87611 152.147 7.91168 152.136 7.94525C152.124 7.97882 152.106 8.00962 152.082 8.03558C152.061 8.05657 152.035 8.07312 152.008 8.08425C151.98 8.09539 151.95 8.1009 151.92 8.10047C151.891 8.10079 151.862 8.0952 151.835 8.08405C151.808 8.0729 151.784 8.05641 151.763 8.03558C151.738 8.01008 151.719 7.9795 151.707 7.94591C151.695 7.91232 151.69 7.87651 151.693 7.84091V7.84091ZM152.115 11.053H151.731V8.52767H152.115V11.053Z" fill="#231F20"/>
</g>
<g style="mix-blend-mode:multiply" opacity="0.75">
<path d="M155.1 9.78759C155.122 10.1367 155.01 10.4812 154.786 10.7501C154.678 10.8672 154.545 10.9589 154.397 11.0188C154.25 11.0786 154.091 11.105 153.931 11.0962C153.72 11.1037 153.512 11.0492 153.331 10.9394C153.152 10.8335 153.011 10.6748 152.926 10.4852C152.822 10.2677 152.772 10.0285 152.78 9.78759C152.759 9.43956 152.869 9.09635 153.088 8.82505C153.197 8.70822 153.331 8.61708 153.48 8.55817C153.628 8.49926 153.788 8.47405 153.948 8.48437C154.105 8.47863 154.261 8.5071 154.406 8.56779C154.55 8.62849 154.68 8.71996 154.786 8.83586C155.005 9.10306 155.117 9.44238 155.1 9.78759V9.78759ZM153.174 9.78759C153.156 10.0475 153.225 10.3061 153.369 10.523C153.441 10.6028 153.528 10.6666 153.626 10.7103C153.724 10.754 153.83 10.7766 153.937 10.7766C154.044 10.7766 154.15 10.754 154.248 10.7103C154.346 10.6666 154.433 10.6028 154.505 10.523C154.651 10.3068 154.721 10.0481 154.705 9.78759C154.721 9.52874 154.651 9.27178 154.505 9.05757C154.437 8.97269 154.349 8.90569 154.249 8.86235C154.149 8.81901 154.04 8.80064 153.931 8.80882C153.824 8.80222 153.717 8.82079 153.619 8.86305C153.52 8.90531 153.433 8.97007 153.364 9.05216C153.224 9.27083 153.157 9.52853 153.174 9.78759V9.78759Z" fill="#231F20"/>
</g>
<g style="mix-blend-mode:multiply" opacity="0.75">
<path d="M157.5 11.053V9.43073C157.51 9.26471 157.458 9.10089 157.354 8.97109C157.297 8.91496 157.228 8.87226 157.152 8.84608C157.077 8.81989 156.996 8.81087 156.916 8.81967C156.81 8.81055 156.704 8.82469 156.604 8.86112C156.504 8.89755 156.413 8.95538 156.338 9.03057C156.196 9.23816 156.131 9.48864 156.154 9.73896V11.0638H155.77V8.52767H156.078L156.143 8.87375C156.224 8.74821 156.339 8.64725 156.473 8.58174C156.623 8.51584 156.785 8.48266 156.949 8.4844C157.195 8.4658 157.44 8.54332 157.63 8.70071C157.715 8.79554 157.78 8.90694 157.82 9.02791C157.86 9.14888 157.875 9.27682 157.863 9.40369V11.053H157.5Z" fill="#231F20"/>
</g>
<g style="mix-blend-mode:multiply" opacity="0.75">
<path d="M39.9402 28.2382L10.8206 9.27936V5.50488L39.9402 26.5835V28.2382Z" fill="#231F20"/>
</g>
<g style="mix-blend-mode:multiply" opacity="0.75">
<path d="M39.9402 31.1854L10.8206 16.0929V12.313L39.9402 29.6604V31.1854Z" fill="#231F20"/>
</g>
<g style="mix-blend-mode:multiply" opacity="0.75">
<path d="M39.9403 35.1491L26.4755 30.2552V27.054L39.9403 33.0726V35.1491Z" fill="#231F20"/>
</g>
<g style="mix-blend-mode:multiply" opacity="0.75">
<path d="M20.3054 27.2486L10.8206 23.5445V19.9971L23.9771 25.8589L20.3054 27.2486Z" fill="#231F20"/>
</g>
<g style="mix-blend-mode:multiply" opacity="0.75">
<path d="M0.1677 21.6843L10.8206 5.50488V9.27936L0.162292 23.8149L0.1677 21.6843Z" fill="#231F20"/>
</g>
<g style="mix-blend-mode:multiply" opacity="0.75">
<path d="M0.167651 25.5831L10.8205 12.313V15.9198L0.151428 27.5353L0.167651 25.5831Z" fill="#231F20"/>
</g>
<g style="mix-blend-mode:multiply" opacity="0.75">
<path d="M0.151428 30.0227L10.8205 19.9971V23.5445L0.167651 31.7207L0.151428 30.0227Z" fill="#231F20"/>
</g>
<g style="mix-blend-mode:multiply" opacity="0.75">
<path d="M21.4463 10.0094L26.4862 5.91045L26.4754 0.151398L18.9967 8.06806L21.4463 10.0094Z" fill="#231F20"/>
</g>
<g style="mix-blend-mode:multiply" opacity="0.75">
<path d="M39.9132 22.0466L26.4862 9.80927V14.0055L39.9456 24.7125L39.9132 22.0466Z" fill="#231F20"/>
</g>
<g style="mix-blend-mode:multiply" opacity="0.75">
<path d="M39.9403 16.028L26.4755 0.151398L26.4863 5.91045L39.9349 19.4347L39.9403 16.028Z" fill="#231F20"/>
</g>
<g style="mix-blend-mode:multiply" opacity="0.75">
<path d="M0.167651 35.8575L26.4754 27.054V30.2552L0.151428 37.3824L0.167651 35.8575Z" fill="#231F20"/>
</g>
<g style="mix-blend-mode:multiply" opacity="0.75">
<path d="M0.167651 38.5234L26.4754 32.8455L26.4862 36.5226L0.151428 40.1565L0.167651 38.5234Z" fill="#231F20"/>
</g>
<g style="mix-blend-mode:multiply" opacity="0.75">
<path d="M0.167664 42.1194L26.4754 39.7672L26.4862 43.4443H0.167664V42.1194Z" fill="#231F20"/>
</g>
<g style="mix-blend-mode:multiply" opacity="0.75">
<path d="M34.0298 35.0355V37.9556L39.9403 39.0804V36.7443L26.4755 32.8455L26.4863 36.5226L31.5694 37.4905V34.3325L34.0298 35.0355Z" fill="#231F20"/>
</g>
<g style="mix-blend-mode:multiply" opacity="0.75">
<path d="M34.0298 35.0355H32.3427V43.4443H34.0298V35.0355Z" fill="#231F20"/>
</g>
<g style="mix-blend-mode:multiply" opacity="0.75">
<path d="M39.9402 43.4443V41.1461L34.0298 40.5404V43.4443H39.9402Z" fill="#231F20"/>
</g>
<g style="mix-blend-mode:multiply" opacity="0.75">
<path d="M26.4863 43.4443H31.5694V40.2863L26.4755 39.7672L26.4863 43.4443Z" fill="#231F20"/>
</g>
<g style="mix-blend-mode:multiply" opacity="0.75">
<path d="M129.03 43.2604C129.024 43.1978 129.044 43.1356 129.084 43.0874C129.102 43.0672 129.125 43.0515 129.15 43.0412C129.175 43.0309 129.203 43.0263 129.23 43.0279C129.259 43.0262 129.288 43.0306 129.315 43.0409C129.342 43.0511 129.366 43.067 129.387 43.0874C129.427 43.1356 129.446 43.1978 129.441 43.2604C129.445 43.3228 129.426 43.3846 129.387 43.4334C129.346 43.4703 129.293 43.4907 129.238 43.4907C129.183 43.4907 129.13 43.4703 129.089 43.4334C129.068 43.4105 129.051 43.3832 129.041 43.3533C129.031 43.3235 129.027 43.2918 129.03 43.2604V43.2604Z" fill="#231F20"/>
</g>
<g style="mix-blend-mode:multiply" opacity="0.75">
<path d="M129.965 43.2604C129.96 43.1978 129.979 43.1356 130.019 43.0874C130.038 43.0672 130.06 43.0515 130.086 43.0412C130.111 43.0309 130.138 43.0263 130.165 43.0279C130.194 43.0262 130.223 43.0306 130.25 43.0409C130.277 43.0511 130.302 43.067 130.322 43.0874C130.362 43.1356 130.382 43.1978 130.376 43.2604C130.381 43.3228 130.361 43.3846 130.322 43.4334C130.281 43.4703 130.228 43.4907 130.173 43.4907C130.118 43.4907 130.065 43.4703 130.025 43.4334C130.003 43.4105 129.987 43.3832 129.976 43.3533C129.966 43.3235 129.962 43.2918 129.965 43.2604V43.2604Z" fill="#231F20"/>
</g>
<g style="mix-blend-mode:multiply" opacity="0.75">
<path d="M130.901 43.2604C130.895 43.1978 130.915 43.1356 130.955 43.0874C130.973 43.0672 130.996 43.0515 131.021 43.0412C131.046 43.0309 131.074 43.0263 131.101 43.0279C131.13 43.0262 131.159 43.0306 131.186 43.0409C131.213 43.0511 131.237 43.067 131.258 43.0874C131.298 43.1356 131.317 43.1978 131.312 43.2604C131.316 43.3228 131.297 43.3846 131.258 43.4334C131.217 43.4703 131.164 43.4907 131.109 43.4907C131.054 43.4907 131.001 43.4703 130.96 43.4334C130.939 43.4105 130.922 43.3832 130.912 43.3533C130.902 43.3235 130.898 43.2918 130.901 43.2604V43.2604Z" fill="#231F20"/>
</g>
<g style="mix-blend-mode:multiply" opacity="0.75">
<path d="M131.944 43.4443V40.9352H132.236V43.1793H133.318V43.4443H131.944Z" fill="#231F20"/>
</g>
<g style="mix-blend-mode:multiply" opacity="0.75">
<path d="M133.967 41.5624V42.7845C133.958 42.9077 133.997 43.0295 134.075 43.1252C134.118 43.1659 134.169 43.197 134.225 43.2166C134.281 43.2361 134.34 43.2437 134.399 43.2388C134.479 43.2454 134.559 43.2342 134.634 43.2062C134.709 43.1781 134.776 43.1339 134.832 43.0766C134.94 42.9183 134.988 42.7264 134.967 42.5358V41.5624H135.254V43.4443H135.021L134.978 43.1901C134.918 43.282 134.834 43.3552 134.735 43.401C134.625 43.4545 134.505 43.4805 134.383 43.4767C134.197 43.4918 134.013 43.4336 133.869 43.3145C133.804 43.2415 133.755 43.1557 133.725 43.0625C133.696 42.9693 133.686 42.871 133.696 42.7737V41.5624H133.967Z" fill="#231F20"/>
</g>
<g style="mix-blend-mode:multiply" opacity="0.75">
<path d="M136.314 42.4817L135.659 41.5624H135.984L136.476 42.2816L136.973 41.5624H137.292L136.638 42.4817L137.352 43.4443H137.033L136.492 42.6818L135.951 43.4443H135.627L136.314 42.4817Z" fill="#231F20"/>
</g>
<g style="mix-blend-mode:multiply" opacity="0.75">
<path d="M137.968 41.5624V42.7845C137.958 42.907 137.995 43.0287 138.071 43.1252C138.115 43.1663 138.167 43.1976 138.224 43.2172C138.281 43.2368 138.341 43.2441 138.401 43.2388C138.481 43.2454 138.561 43.2342 138.636 43.2062C138.71 43.1781 138.778 43.1339 138.834 43.0766C138.939 42.917 138.987 42.7262 138.969 42.5358V41.5624H139.25V43.4443H139.017L138.98 43.1901C138.92 43.282 138.836 43.3552 138.736 43.401C138.625 43.4552 138.503 43.4812 138.379 43.4767C138.283 43.4872 138.185 43.4783 138.093 43.4504C138 43.4226 137.913 43.3763 137.839 43.3145C137.774 43.2415 137.724 43.1557 137.695 43.0625C137.665 42.9693 137.655 42.871 137.666 42.7737V41.5624H137.968Z" fill="#231F20"/>
</g>
<g style="mix-blend-mode:multiply" opacity="0.75">
<path d="M140.715 41.53C140.791 41.5242 140.867 41.5242 140.943 41.53L140.899 41.7949C140.831 41.788 140.762 41.788 140.694 41.7949C140.619 41.7955 140.545 41.8128 140.478 41.8455C140.41 41.8783 140.351 41.9257 140.304 41.9842C140.195 42.1116 140.137 42.2757 140.142 42.4439V43.4551H139.856V41.5624H140.094L140.126 41.9085C140.189 41.797 140.276 41.701 140.38 41.6273C140.479 41.5608 140.596 41.5268 140.715 41.53Z" fill="#231F20"/>
</g>
<g style="mix-blend-mode:multiply" opacity="0.75">
<path d="M140.991 41.5624H141.299L141.71 42.644C141.779 42.82 141.835 43.0007 141.878 43.1847C141.878 43.1306 141.921 43.0279 141.97 42.8873C142.019 42.7467 142.17 42.3087 142.435 41.5841H142.76L141.948 43.7471C141.895 43.9183 141.798 44.0728 141.667 44.1959C141.559 44.2882 141.42 44.3364 141.278 44.3311C141.19 44.3316 141.103 44.3207 141.018 44.2987V44.0715C141.088 44.0807 141.159 44.0807 141.229 44.0715C141.326 44.0716 141.419 44.0391 141.495 43.9792C141.57 43.9193 141.624 43.8356 141.646 43.7417L141.754 43.4767L140.991 41.5624Z" fill="#231F20"/>
</g>
<g style="mix-blend-mode:multiply" opacity="0.75">
<path d="M145.912 40.9352V42.5575C145.918 42.682 145.899 42.8065 145.854 42.923C145.809 43.0394 145.741 43.1452 145.653 43.2334C145.457 43.4042 145.203 43.4916 144.944 43.4768C144.816 43.4851 144.688 43.4673 144.567 43.4246C144.446 43.3818 144.335 43.3149 144.241 43.228C144.155 43.1386 144.089 43.0324 144.046 42.9161C144.003 42.7998 143.985 42.6758 143.992 42.5521V40.9298H144.284V42.5521C144.279 42.6407 144.292 42.7294 144.321 42.8131C144.351 42.8967 144.397 42.9734 144.457 43.0388C144.601 43.1475 144.775 43.2064 144.955 43.2064C145.135 43.2064 145.309 43.1475 145.452 43.0388C145.512 42.973 145.557 42.896 145.586 42.8124C145.614 42.7288 145.626 42.6403 145.62 42.5521V40.9298L145.912 40.9352Z" fill="#231F20"/>
</g>
<g style="mix-blend-mode:multiply" opacity="0.75">
<path d="M147.821 43.4443V42.2276C147.832 42.1034 147.795 41.9797 147.718 41.8815C147.674 41.8405 147.622 41.8091 147.565 41.7895C147.509 41.77 147.448 41.7626 147.388 41.768C147.309 41.7614 147.229 41.7725 147.154 41.8006C147.079 41.8286 147.011 41.8729 146.956 41.9302C146.847 42.0882 146.799 42.2803 146.821 42.4709V43.4605H146.545V41.5625H146.777L146.826 41.8166C146.885 41.7224 146.972 41.6488 147.075 41.6057C147.184 41.5522 147.305 41.5262 147.426 41.53C147.61 41.5158 147.793 41.574 147.935 41.6923C148 41.7652 148.049 41.8511 148.079 41.9442C148.108 42.0374 148.118 42.1358 148.108 42.233V43.4605L147.821 43.4443Z" fill="#231F20"/>
</g>
<g style="mix-blend-mode:multiply" opacity="0.75">
<path d="M149.568 41.53C149.677 41.5251 149.786 41.5455 149.887 41.5896C149.987 41.6336 150.076 41.7002 150.146 41.7842C150.279 42.0007 150.349 42.2496 150.349 42.5034C150.349 42.7572 150.279 43.006 150.146 43.2226C150.077 43.3064 149.989 43.373 149.89 43.4171C149.79 43.4612 149.682 43.4816 149.573 43.4767C149.458 43.4782 149.344 43.4561 149.238 43.4118C149.137 43.3634 149.05 43.291 148.984 43.2009V43.2009L148.924 43.4443H148.708V40.7729H148.994V41.4219C148.994 41.5697 148.994 41.6994 148.994 41.8112C149.059 41.7204 149.145 41.6471 149.245 41.598C149.345 41.5489 149.456 41.5255 149.568 41.53V41.53ZM149.524 41.7679C149.447 41.7613 149.369 41.773 149.296 41.8021C149.224 41.8312 149.159 41.877 149.108 41.9356C149.023 42.1118 148.978 42.3049 148.978 42.5007C148.978 42.6964 149.023 42.8896 149.108 43.0658C149.162 43.1243 149.228 43.1702 149.302 43.2001C149.376 43.23 149.456 43.2432 149.535 43.2388C149.611 43.2431 149.686 43.228 149.755 43.1949C149.823 43.1618 149.881 43.1117 149.925 43.0495C150.019 42.8854 150.064 42.6977 150.054 42.5088C150.067 42.3195 150.022 42.1309 149.925 41.968C149.881 41.9026 149.821 41.8497 149.751 41.8146C149.681 41.7795 149.603 41.7634 149.524 41.7679Z" fill="#231F20"/>
</g>
<g style="mix-blend-mode:multiply" opacity="0.75">
<path d="M152.493 42.4979C152.505 42.7578 152.422 43.0132 152.261 43.2171C152.12 43.3545 151.938 43.4424 151.743 43.4678C151.548 43.4931 151.35 43.4545 151.179 43.3577C151.044 43.28 150.938 43.1604 150.876 43.0171C150.798 42.8478 150.761 42.6626 150.768 42.4763C150.752 42.2175 150.835 41.9623 151.001 41.7625C151.081 41.6751 151.18 41.6069 151.291 41.563C151.401 41.519 151.52 41.5003 151.639 41.5084C151.756 41.5034 151.873 41.524 151.981 41.5688C152.089 41.6137 152.187 41.6816 152.266 41.7679C152.431 41.9738 152.512 42.2346 152.493 42.4979V42.4979ZM151.06 42.4979C151.05 42.6884 151.099 42.8774 151.201 43.0387C151.254 43.0979 151.32 43.1452 151.393 43.1776C151.466 43.21 151.545 43.2267 151.625 43.2267C151.705 43.2267 151.784 43.21 151.857 43.1776C151.93 43.1452 151.996 43.0979 152.05 43.0387C152.156 42.8791 152.207 42.6893 152.196 42.4979C152.209 42.3064 152.157 42.1161 152.05 41.9572C151.999 41.8938 151.933 41.8435 151.859 41.8106C151.785 41.7776 151.704 41.763 151.622 41.7679C151.543 41.7657 151.464 41.781 151.391 41.8127C151.318 41.8445 151.253 41.892 151.201 41.9518C151.087 42.1107 151.03 42.3029 151.038 42.4979H151.06Z" fill="#231F20"/>
</g>
<g style="mix-blend-mode:multiply" opacity="0.75">
<path d="M153.423 42.4817L152.769 41.5624H153.093L153.591 42.2816L154.083 41.5624H154.402L153.753 42.4817L154.44 43.4443H154.115L153.575 42.6818L153.034 43.4443H152.715L153.423 42.4817Z" fill="#231F20"/>
</g>
<g style="mix-blend-mode:multiply" opacity="0.75">
<path d="M155.608 43.4767C155.486 43.4829 155.365 43.4634 155.251 43.4196C155.137 43.3759 155.034 43.3087 154.948 43.2226C154.777 43.0297 154.69 42.7769 154.705 42.5196C154.69 42.2585 154.771 42.0011 154.932 41.795C155.004 41.707 155.096 41.6373 155.201 41.5913C155.305 41.5452 155.418 41.5243 155.532 41.53C155.633 41.5271 155.734 41.5458 155.827 41.585C155.92 41.6241 156.004 41.6829 156.073 41.7571C156.217 41.9292 156.29 42.1495 156.278 42.3736V42.552H154.986C154.977 42.7348 155.037 42.9142 155.154 43.0549C155.211 43.1139 155.28 43.1598 155.357 43.1897C155.433 43.2195 155.515 43.2326 155.597 43.228C155.805 43.2257 156.011 43.1835 156.203 43.1036V43.3524C156.111 43.3944 156.015 43.427 155.916 43.4497C155.814 43.4672 155.711 43.4763 155.608 43.4767ZM155.527 41.7679C155.459 41.7649 155.392 41.7764 155.33 41.8016C155.267 41.8268 155.211 41.8651 155.164 41.9139C155.07 42.0288 155.015 42.171 155.008 42.3195H155.992C156.002 42.1728 155.96 42.0271 155.873 41.9085C155.83 41.8601 155.776 41.8222 155.716 41.7978C155.656 41.7735 155.591 41.7632 155.527 41.7679V41.7679Z" fill="#231F20"/>
</g>
<g style="mix-blend-mode:multiply" opacity="0.75">
<path d="M158.063 43.1901C157.998 43.2847 157.909 43.3608 157.806 43.4111C157.703 43.4613 157.588 43.4839 157.473 43.4767C157.365 43.4816 157.256 43.4612 157.157 43.4171C157.057 43.373 156.97 43.3064 156.9 43.2226C156.752 43.0153 156.679 42.7633 156.695 42.5088C156.68 42.251 156.752 41.9957 156.9 41.7842C156.969 41.6993 157.056 41.632 157.156 41.5878C157.256 41.5437 157.365 41.5238 157.473 41.53C157.587 41.5246 157.7 41.5469 157.802 41.595C157.905 41.643 157.994 41.7154 158.063 41.8058V41.8058V41.6706V40.7729H158.349V43.4443H158.117L158.063 43.1901ZM157.495 43.2388C157.573 43.2445 157.65 43.2334 157.723 43.2063C157.796 43.1793 157.862 43.1369 157.917 43.082C158.022 42.9223 158.068 42.7311 158.047 42.5412V42.4817C158.064 42.2818 158.019 42.0814 157.917 41.9085C157.862 41.851 157.796 41.8061 157.722 41.7772C157.648 41.7482 157.569 41.7358 157.49 41.7409C157.414 41.737 157.339 41.7529 157.272 41.7871C157.204 41.8212 157.147 41.8724 157.106 41.9356C157.011 42.0996 156.966 42.2874 156.976 42.4763C156.964 42.6655 157.009 42.8539 157.106 43.0171C157.142 43.0893 157.198 43.1502 157.266 43.1931C157.335 43.236 157.414 43.2593 157.495 43.2604V43.2388Z" fill="#231F20"/>
</g>
</g>
<path d="M57.1525 12.0912C62.3059 12.0912 65.6045 14.2542 65.6045 17.6556C65.5997 18.751 65.2288 19.8133 64.5508 20.6737C63.8727 21.534 62.9264 22.1429 61.8625 22.4034C63.1436 22.648 64.2949 23.3428 65.1082 24.3624C65.9214 25.382 66.343 26.659 66.2967 27.9624C66.2967 31.7477 62.9007 34.1216 57.6446 34.1216H46.3428V12.0912H57.1525ZM52.8264 20.7433H56.7848C58.0718 20.7433 58.8883 19.9917 58.8883 18.829C58.8883 17.6664 58.0718 17.0121 56.7848 17.0121H52.8481L52.8264 20.7433ZM52.8264 29.2602H56.7848C58.4503 29.2602 59.4885 28.4437 59.4885 27.1567C59.4885 25.9616 58.4557 25.2099 56.7848 25.2099H52.8481L52.8264 29.2602Z" fill="white"/>
<path d="M81.7677 34.1216V25.9237H73.943V34.1216H67.4106V12.0912H73.943V20.8623H81.7677V12.0912H88.3V34.1216H81.7677Z" fill="white"/>
<path d="M113.202 23.0903C113.202 29.5793 108.108 34.4083 101.202 34.4083C94.297 34.4083 89.2247 29.601 89.2247 23.0903C89.2247 16.5796 94.2862 11.8966 101.202 11.8966C108.119 11.8966 113.202 16.6499 113.202 23.0903ZM95.8977 23.1227C95.8977 26.4538 98.4068 28.9413 101.305 28.9413C104.204 28.9413 106.529 26.4538 106.529 23.1227C106.529 19.7917 104.209 17.3745 101.316 17.3745C98.423 17.3745 95.8922 19.7917 95.8922 23.1227H95.8977Z" fill="white"/>
<path d="M134.459 24.826C134.459 30.6662 130.468 34.4082 124.185 34.4082C117.901 34.4082 113.753 30.6662 113.753 24.826V12.0912H120.291V24.826C120.291 27.3676 122.022 28.9412 124.222 28.9412C126.423 28.9412 127.927 27.4 127.927 24.826V12.0912H134.464L134.459 24.826Z" fill="white"/>
<path d="M158.166 34.1216H150.33L146.15 27.838L142.013 34.1216H134.378L142.17 22.9063L134.881 12.0912H142.484L146.128 17.8449L149.789 12.0912H157.49L150.33 22.6197L158.166 34.1216Z" fill="white"/>
<path d="M142.349 38.7126V35.3492H142.759V38.3558H144.241V38.7126H142.349Z" fill="white"/>
<path d="M144.706 35.506C144.702 35.436 144.723 35.3667 144.766 35.3113C144.811 35.2725 144.868 35.2511 144.928 35.2511C144.988 35.2511 145.045 35.2725 145.09 35.3113C145.113 35.3378 145.131 35.3686 145.142 35.4021C145.153 35.4355 145.158 35.4708 145.155 35.506C145.158 35.5403 145.154 35.5749 145.143 35.6076C145.132 35.6402 145.114 35.6701 145.09 35.6952C145.046 35.7363 144.988 35.7591 144.928 35.7591C144.868 35.7591 144.81 35.7363 144.766 35.6952C144.722 35.6422 144.701 35.5744 144.706 35.506ZM145.117 38.7126H144.733V36.1873H145.117V38.7126Z" fill="white"/>
<path d="M149.146 38.7127V37.0904C149.158 36.93 149.112 36.7706 149.016 36.6416C148.965 36.5882 148.902 36.5469 148.833 36.5207C148.764 36.4945 148.69 36.4841 148.616 36.4902C148.516 36.4794 148.415 36.4924 148.321 36.5281C148.227 36.5638 148.143 36.6212 148.075 36.6957C147.951 36.8803 147.892 37.101 147.907 37.3229V38.7343H147.524V37.112C147.536 36.9517 147.49 36.7922 147.394 36.6632C147.342 36.6091 147.279 36.5673 147.208 36.5411C147.138 36.5149 147.063 36.5049 146.988 36.5118C146.888 36.4994 146.786 36.5121 146.691 36.5489C146.597 36.5858 146.513 36.6455 146.447 36.7227C146.318 36.9352 146.26 37.1832 146.28 37.4311V38.7559H145.896V36.1873H146.204L146.269 36.5334C146.342 36.4105 146.449 36.3111 146.577 36.2468C146.712 36.1762 146.863 36.1408 147.015 36.1441C147.172 36.1241 147.331 36.1541 147.47 36.2298C147.609 36.3056 147.72 36.4232 147.789 36.5659V36.5659C147.869 36.4372 147.98 36.3312 148.113 36.2576C148.264 36.1809 148.431 36.142 148.6 36.1441C148.716 36.1339 148.833 36.1479 148.944 36.1851C149.055 36.2223 149.157 36.282 149.243 36.3604C149.403 36.5579 149.479 36.8104 149.454 37.0634V38.6856L149.146 38.7127Z" fill="white"/>
<path d="M150.287 35.506C150.283 35.4712 150.287 35.4361 150.297 35.4027C150.307 35.3693 150.324 35.3382 150.346 35.3113C150.392 35.2727 150.449 35.2516 150.508 35.2518C150.566 35.252 150.622 35.2731 150.665 35.3113C150.689 35.3374 150.708 35.3681 150.72 35.4015C150.732 35.4349 150.738 35.4705 150.736 35.506C150.738 35.5407 150.733 35.5756 150.721 35.6083C150.709 35.6409 150.69 35.6706 150.665 35.6953C150.645 35.7161 150.62 35.7326 150.594 35.7437C150.567 35.7549 150.538 35.7605 150.508 35.7601C150.475 35.7621 150.442 35.7569 150.411 35.7448C150.381 35.7326 150.353 35.7139 150.33 35.6898C150.311 35.6636 150.297 35.6339 150.29 35.6023C150.282 35.5707 150.281 35.538 150.287 35.506V35.506ZM150.698 38.7127H150.33V36.1873H150.709L150.698 38.7127Z" fill="white"/>
<path d="M152.325 38.4423H152.52L152.672 38.4099V38.6965C152.614 38.7242 152.552 38.7407 152.488 38.7451C152.417 38.7608 152.344 38.7699 152.271 38.7722C151.779 38.7722 151.536 38.518 151.536 37.9989V36.4848H151.174V36.3009L151.536 36.1441L151.698 35.6033H151.92V36.1873H152.65V36.4848H151.92V37.9718C151.909 38.0969 151.948 38.2211 152.028 38.3179C152.065 38.3596 152.111 38.3924 152.163 38.4139C152.214 38.4354 152.27 38.4451 152.325 38.4423V38.4423Z" fill="white"/>
<path d="M154.24 38.7614C154.075 38.766 153.912 38.7356 153.76 38.6722C153.608 38.6088 153.471 38.5139 153.358 38.3936C153.245 38.266 153.158 38.1172 153.102 37.9557C153.046 37.7942 153.023 37.6232 153.034 37.4527C153.017 37.1036 153.122 36.7594 153.331 36.4794C153.431 36.3628 153.556 36.2702 153.696 36.2084C153.837 36.1466 153.989 36.1173 154.142 36.1225C154.283 36.1159 154.423 36.1402 154.552 36.1934C154.682 36.2466 154.799 36.3276 154.894 36.4307C155.086 36.6627 155.184 36.9576 155.17 37.2581V37.5014H153.429C153.416 37.7456 153.498 37.9854 153.656 38.1719C153.733 38.2521 153.826 38.3145 153.93 38.3546C154.034 38.3948 154.145 38.4118 154.256 38.4045C154.532 38.4016 154.804 38.3428 155.056 38.2314V38.5775C154.798 38.6873 154.52 38.7425 154.24 38.7397V38.7614ZM154.115 36.4631C154.025 36.4593 153.934 36.4751 153.85 36.5097C153.766 36.5442 153.691 36.5966 153.629 36.6632C153.502 36.8164 153.426 37.0056 153.412 37.204H154.737C154.748 37.0103 154.691 36.8189 154.575 36.6632C154.52 36.5953 154.45 36.5415 154.37 36.5067C154.29 36.4719 154.202 36.4569 154.115 36.4631Z" fill="white"/>
<path d="M157.538 38.3936C157.451 38.5208 157.333 38.6235 157.195 38.6917C157.056 38.7599 156.903 38.7913 156.749 38.783C156.602 38.7896 156.456 38.7622 156.322 38.7031C156.188 38.644 156.07 38.5548 155.976 38.4423C155.775 38.163 155.678 37.8228 155.7 37.4797C155.678 37.135 155.776 36.7934 155.976 36.5118C156.068 36.397 156.186 36.3058 156.321 36.2456C156.455 36.1854 156.602 36.158 156.749 36.1657C156.9 36.1575 157.051 36.1873 157.188 36.2525C157.325 36.3177 157.444 36.4161 157.533 36.5388H157.565V36.355V36.1819V35.1491H157.901V38.7343H157.587L157.538 38.3936ZM156.77 38.4639C156.876 38.4723 156.982 38.4572 157.081 38.4198C157.18 38.3825 157.27 38.3236 157.344 38.2476C157.477 38.0446 157.538 37.8027 157.517 37.5608V37.4797C157.54 37.2106 157.476 36.9411 157.333 36.7119C157.266 36.6349 157.183 36.5743 157.089 36.5349C156.995 36.4955 156.894 36.4783 156.792 36.4847C156.687 36.4738 156.581 36.4923 156.485 36.5381C156.39 36.584 156.309 36.6553 156.251 36.7443C156.116 36.9666 156.051 37.2252 156.068 37.4851C156.051 37.741 156.113 37.9958 156.246 38.2152C156.308 38.2933 156.388 38.3549 156.48 38.3945C156.571 38.4341 156.671 38.4505 156.77 38.4423V38.4639Z" fill="white"/>
<path d="M101.662 10.8962L101.24 9.81469H99.8938L99.4774 10.8962H99.0826L100.413 7.51648H100.743L102.068 10.8962H101.662ZM101.121 9.47402L100.727 8.43576C100.678 8.30058 100.624 8.13835 100.57 7.94368C100.534 8.11078 100.487 8.27521 100.429 8.43576L100.029 9.47402H101.121Z" fill="white"/>
<path d="M103.593 8.32762C103.693 8.31836 103.795 8.31836 103.895 8.32762L103.847 8.68452C103.756 8.66427 103.664 8.65339 103.571 8.65207C103.468 8.64846 103.366 8.66852 103.272 8.71072C103.178 8.75291 103.096 8.81611 103.03 8.89541C102.883 9.06837 102.806 9.29024 102.814 9.51728V10.8692H102.43V8.37629H102.744L102.787 8.84134C102.874 8.69221 102.99 8.56174 103.128 8.4574C103.266 8.36887 103.428 8.32368 103.593 8.32762V8.32762Z" fill="white"/>
<path d="M105.377 10.9449C105.22 10.9543 105.062 10.9291 104.915 10.8712C104.769 10.8133 104.637 10.724 104.528 10.6096C104.315 10.3377 104.207 9.99766 104.225 9.65247C104.203 9.30099 104.313 8.95398 104.533 8.67911C104.643 8.55886 104.778 8.46482 104.929 8.40396C105.079 8.34311 105.242 8.31702 105.404 8.32762C105.526 8.32952 105.647 8.34218 105.766 8.36547C105.865 8.38638 105.961 8.41718 106.053 8.4574L105.934 8.78726C105.845 8.75046 105.753 8.72151 105.658 8.70074C105.571 8.68058 105.483 8.6697 105.393 8.6683C104.853 8.6683 104.625 8.99275 104.625 9.64707C104.607 9.89944 104.674 10.1507 104.815 10.3609C104.878 10.4428 104.96 10.5082 105.055 10.5515C105.149 10.5948 105.252 10.6148 105.355 10.6096C105.577 10.6075 105.795 10.5615 105.999 10.4744V10.8151C105.805 10.9079 105.592 10.9525 105.377 10.9449Z" fill="white"/>
<path d="M108.34 10.8962V9.27397C108.354 9.11099 108.305 8.94894 108.205 8.81974C108.148 8.76189 108.078 8.71775 108.001 8.69059C107.925 8.66344 107.843 8.65398 107.762 8.66292C107.655 8.65442 107.547 8.66937 107.446 8.70672C107.345 8.74407 107.254 8.80294 107.178 8.87922C107.041 9.09076 106.978 9.34187 106.999 9.59302V10.9071H106.615V7.31644H106.999V8.39795C107.006 8.50779 107.006 8.61797 106.999 8.72781V8.72781C107.075 8.60172 107.186 8.5003 107.318 8.4358C107.467 8.36452 107.63 8.32931 107.794 8.33306C108.045 8.31424 108.293 8.39376 108.486 8.55477C108.571 8.6486 108.636 8.75906 108.676 8.87914C108.716 8.99922 108.731 9.1263 108.719 9.25234V10.8746L108.34 10.8962Z" fill="white"/>
<path d="M109.476 7.68955C109.473 7.65442 109.478 7.6191 109.489 7.58568C109.5 7.55225 109.518 7.52138 109.541 7.49488C109.587 7.45784 109.644 7.43694 109.703 7.43539C109.763 7.43717 109.821 7.46016 109.865 7.50028C109.889 7.52562 109.907 7.55553 109.918 7.58811C109.929 7.62068 109.933 7.65523 109.93 7.68955C109.934 7.72473 109.93 7.76021 109.918 7.79373C109.907 7.82724 109.889 7.85807 109.865 7.88422C109.844 7.90449 109.818 7.9202 109.79 7.93042C109.762 7.94063 109.733 7.94515 109.703 7.9437C109.673 7.94547 109.644 7.9411 109.616 7.93087C109.588 7.92063 109.562 7.90475 109.541 7.88422C109.517 7.85807 109.499 7.82724 109.488 7.79373C109.477 7.76021 109.473 7.72473 109.476 7.68955V7.68955ZM109.892 10.8962H109.508V8.37631H109.892V10.8962Z" fill="white"/>
<path d="M111.515 10.6312C111.585 10.6312 111.65 10.6312 111.709 10.6312L111.866 10.5988V10.8908C111.808 10.9169 111.746 10.9333 111.682 10.9395C111.609 10.9467 111.534 10.9467 111.461 10.9395C110.974 10.9395 110.731 10.6853 110.731 10.1716V8.65207H110.368V8.48985L110.731 8.32762L110.887 7.78687H111.109V8.37088H111.845V8.65207H111.109V10.1337C111.1 10.2611 111.141 10.387 111.223 10.4852C111.257 10.5301 111.301 10.5666 111.352 10.5919C111.402 10.6172 111.458 10.6306 111.515 10.6312V10.6312Z" fill="white"/>
<path d="M113.429 10.9449C113.266 10.953 113.104 10.9268 112.952 10.8681C112.8 10.8094 112.662 10.7195 112.547 10.6042C112.319 10.3439 112.202 10.0038 112.223 9.65788C112.205 9.30941 112.312 8.96602 112.526 8.68993C112.623 8.57125 112.746 8.47675 112.886 8.41387C113.026 8.351 113.178 8.32147 113.332 8.32762C113.476 8.32029 113.62 8.34567 113.753 8.40186C113.886 8.45805 114.004 8.54359 114.099 8.65207C114.292 8.88327 114.391 9.17875 114.375 9.47943V9.73358H112.639C112.626 9.97806 112.707 10.2184 112.867 10.4041C112.943 10.4839 113.035 10.546 113.138 10.5862C113.241 10.6263 113.351 10.6436 113.461 10.6366C113.739 10.6363 114.013 10.5792 114.267 10.469V10.8097C114.144 10.8642 114.015 10.9058 113.883 10.9341C113.733 10.9547 113.58 10.9583 113.429 10.9449ZM113.326 8.65207C113.236 8.64898 113.147 8.66524 113.064 8.69976C112.981 8.73428 112.906 8.78625 112.845 8.85215C112.717 9.0046 112.641 9.19415 112.629 9.39291H113.953C113.964 9.19932 113.906 9.00822 113.791 8.85215C113.736 8.78339 113.665 8.7292 113.584 8.69433C113.502 8.65945 113.414 8.64495 113.326 8.65207V8.65207Z" fill="white"/>
<path d="M116.025 10.9449C115.866 10.9551 115.708 10.9303 115.56 10.8724C115.412 10.8144 115.279 10.7247 115.17 10.6096C114.959 10.337 114.853 9.99698 114.873 9.65247C114.849 9.30169 114.957 8.95476 115.176 8.67911C115.285 8.55886 115.42 8.46482 115.571 8.40396C115.721 8.34311 115.884 8.31702 116.046 8.32762C116.168 8.32923 116.289 8.3419 116.408 8.36547C116.507 8.38471 116.603 8.41556 116.695 8.4574L116.581 8.78726C116.49 8.75123 116.396 8.72231 116.3 8.70074C116.215 8.68059 116.128 8.66971 116.041 8.6683C115.5 8.6683 115.267 8.99275 115.267 9.64707C115.246 9.90049 115.315 10.1532 115.462 10.3609C115.525 10.4439 115.607 10.51 115.701 10.5535C115.795 10.5969 115.899 10.6162 116.003 10.6096C116.224 10.6089 116.443 10.5629 116.646 10.4744V10.8151C116.453 10.909 116.239 10.9536 116.025 10.9449V10.9449Z" fill="white"/>
<path d="M118.074 10.6312C118.144 10.6312 118.204 10.6312 118.269 10.6312L118.42 10.5988V10.8908C118.362 10.9161 118.3 10.9325 118.236 10.9395C118.164 10.9465 118.092 10.9465 118.02 10.9395C117.528 10.9395 117.284 10.6853 117.284 10.1716V8.65207H116.922V8.48985L117.284 8.32762L117.447 7.78687H117.668V8.37088H118.425V8.65207H117.668V10.1337C117.658 10.2604 117.697 10.3862 117.777 10.4852C117.812 10.5308 117.857 10.5677 117.908 10.5931C117.96 10.6184 118.017 10.6315 118.074 10.6312V10.6312Z" fill="white"/>
<path d="M119.285 8.37628V9.99855C119.272 10.1641 119.322 10.3286 119.426 10.4582C119.484 10.5123 119.554 10.5536 119.629 10.5797C119.704 10.6057 119.784 10.6159 119.864 10.6096C119.97 10.6192 120.078 10.6047 120.178 10.5673C120.278 10.5298 120.368 10.4704 120.442 10.3933C120.581 10.1843 120.646 9.93493 120.626 9.68491V8.37628H121.01V10.8962H120.691L120.637 10.5609C120.56 10.6857 120.447 10.7839 120.313 10.8421C120.164 10.9121 120.001 10.9472 119.837 10.9449C119.587 10.9646 119.339 10.8871 119.145 10.7286C119.062 10.6323 119 10.5206 118.961 10.3999C118.922 10.2792 118.907 10.152 118.918 10.0256V8.40332L119.285 8.37628Z" fill="white"/>
<path d="M122.968 8.3276C123.069 8.31861 123.17 8.31861 123.271 8.3276L123.217 8.6845C123.126 8.66425 123.034 8.65338 122.941 8.65206C122.838 8.64925 122.736 8.66968 122.643 8.71182C122.549 8.75395 122.466 8.81671 122.4 8.8954C122.255 9.06963 122.178 9.29062 122.184 9.51727V10.8692H121.8V8.37627H122.119L122.162 8.84132C122.246 8.6913 122.36 8.5605 122.497 8.45739C122.638 8.36872 122.802 8.32357 122.968 8.3276V8.3276Z" fill="white"/>
<path d="M124.806 10.9448C124.644 10.9533 124.481 10.9273 124.329 10.8686C124.177 10.8099 124.04 10.7198 123.925 10.6042C123.698 10.3427 123.582 10.0034 123.601 9.65784C123.583 9.30937 123.69 8.96598 123.903 8.68989C124 8.57121 124.124 8.4767 124.264 8.41383C124.403 8.35096 124.556 8.32143 124.709 8.32758C124.85 8.32351 124.989 8.35048 125.118 8.40655C125.247 8.46263 125.362 8.54645 125.455 8.65203C125.648 8.88323 125.747 9.17871 125.731 9.47939V9.73354H123.995C123.986 9.97734 124.067 10.216 124.222 10.4041C124.3 10.484 124.393 10.5461 124.497 10.5863C124.601 10.6264 124.712 10.6436 124.823 10.6366C125.1 10.6362 125.374 10.5792 125.628 10.469V10.8096C125.506 10.8625 125.379 10.9041 125.25 10.934C125.103 10.9531 124.954 10.9567 124.806 10.9448V10.9448ZM124.709 8.65203C124.618 8.64851 124.528 8.66455 124.444 8.69908C124.36 8.7336 124.284 8.78579 124.222 8.85211C124.092 9.00331 124.016 9.19359 124.006 9.39287H125.326C125.335 9.20022 125.279 9.01002 125.169 8.85211C125.112 8.78643 125.041 8.73434 124.962 8.69971C124.882 8.66508 124.796 8.64878 124.709 8.65203V8.65203Z" fill="white"/>
<path d="M127.121 7.31644H127.445V12.0426H127.121V7.31644Z" fill="white"/>
<path d="M131.712 7.83554C131.547 7.82611 131.383 7.85433 131.231 7.91805C131.079 7.98178 130.944 8.07932 130.836 8.20325C130.606 8.48841 130.49 8.84882 130.511 9.21447C130.489 9.58189 130.6 9.94506 130.825 10.2365C130.934 10.3602 131.071 10.4572 131.224 10.52C131.376 10.5828 131.542 10.6097 131.706 10.5988C131.98 10.5926 132.251 10.549 132.512 10.469V10.8151C132.235 10.9132 131.941 10.959 131.647 10.9503C131.434 10.9632 131.221 10.9297 131.022 10.8522C130.823 10.7748 130.643 10.6551 130.495 10.5015C130.208 10.1361 130.066 9.67804 130.095 9.21447C130.088 8.90064 130.155 8.58961 130.29 8.306C130.405 8.05442 130.593 7.84339 130.83 7.70035C131.097 7.55557 131.397 7.48288 131.701 7.48946C132.02 7.48242 132.337 7.54904 132.626 7.68413L132.458 8.0194C132.226 7.90464 131.971 7.8419 131.712 7.83554V7.83554Z" fill="white"/>
<path d="M135.367 9.6308C135.39 9.98163 135.278 10.3279 135.054 10.5988C134.945 10.7166 134.811 10.8087 134.663 10.8686C134.514 10.9284 134.354 10.9545 134.194 10.9448C133.983 10.9468 133.776 10.8927 133.594 10.788C133.417 10.6771 133.276 10.5175 133.188 10.3284C133.09 10.1091 133.042 9.87086 133.047 9.6308C133.027 9.2844 133.137 8.9428 133.356 8.67366C133.467 8.56215 133.6 8.47369 133.745 8.41334C133.891 8.35299 134.047 8.32193 134.205 8.32193C134.362 8.32193 134.519 8.35299 134.664 8.41334C134.81 8.47369 134.942 8.56215 135.054 8.67366C135.277 8.94095 135.389 9.28341 135.367 9.6308ZM133.442 9.6308C133.424 9.89238 133.493 10.1526 133.637 10.3716C133.708 10.4514 133.796 10.5152 133.894 10.5589C133.992 10.6026 134.098 10.6252 134.205 10.6252C134.312 10.6252 134.418 10.6026 134.516 10.5589C134.613 10.5152 134.701 10.4514 134.772 10.3716C134.92 10.1541 134.989 9.89272 134.967 9.6308C134.987 9.37241 134.918 9.11495 134.772 8.90078C134.703 8.81728 134.615 8.75126 134.516 8.70804C134.416 8.66483 134.308 8.64565 134.199 8.65203C134.096 8.64906 133.994 8.66997 133.9 8.71312C133.806 8.75626 133.723 8.82048 133.659 8.90078C133.506 9.11256 133.43 9.36998 133.442 9.6308Z" fill="white"/>
<path d="M137.763 10.8962V9.27396C137.775 9.11028 137.725 8.94815 137.622 8.81973C137.566 8.76264 137.497 8.71893 137.421 8.6918C137.345 8.66467 137.264 8.6548 137.184 8.66291C137.077 8.65441 136.969 8.66936 136.869 8.70671C136.768 8.74406 136.676 8.80293 136.6 8.87921C136.459 9.0868 136.394 9.33728 136.416 9.5876V10.907H136.038V8.37631H136.346L136.411 8.72239C136.49 8.59451 136.604 8.49287 136.741 8.43038C136.888 8.36224 137.049 8.32718 137.211 8.32764C137.459 8.30986 137.705 8.3872 137.898 8.54394C137.983 8.63995 138.048 8.75231 138.088 8.87412C138.128 8.99594 138.142 9.12464 138.131 9.25233V10.8746L137.763 10.8962Z" fill="white"/>
<path d="M140.553 10.2095C140.559 10.3136 140.539 10.4176 140.495 10.512C140.45 10.6065 140.383 10.6883 140.299 10.7502C140.077 10.8879 139.819 10.9539 139.558 10.9395C139.288 10.9523 139.019 10.8985 138.774 10.7827V10.4258C138.899 10.4914 139.031 10.5404 139.169 10.5718C139.3 10.6053 139.434 10.6234 139.569 10.6258C139.728 10.6343 139.887 10.6007 140.029 10.5285C140.079 10.4993 140.121 10.4565 140.149 10.4049C140.176 10.3533 140.189 10.295 140.185 10.2365C140.186 10.1874 140.175 10.139 140.153 10.0949C140.131 10.0508 140.1 10.0123 140.061 9.98234C139.906 9.87747 139.737 9.79551 139.558 9.739C139.386 9.6784 139.219 9.60238 139.061 9.51188C138.974 9.45163 138.9 9.37436 138.844 9.28476C138.793 9.19425 138.767 9.09149 138.769 8.98735C138.764 8.89092 138.785 8.79494 138.829 8.70935C138.874 8.62377 138.941 8.55171 139.023 8.50067C139.227 8.3704 139.468 8.30795 139.71 8.32222C139.983 8.32205 140.254 8.37915 140.504 8.48985L140.369 8.80349C140.154 8.70396 139.92 8.6488 139.683 8.64126C139.54 8.63378 139.399 8.6636 139.272 8.72778C139.229 8.75113 139.193 8.78556 139.169 8.82743C139.144 8.8693 139.131 8.91708 139.131 8.96572C139.132 9.02736 139.151 9.08739 139.185 9.13876C139.229 9.19691 139.287 9.24334 139.353 9.27395C139.496 9.34657 139.644 9.40979 139.796 9.46321C140.019 9.52688 140.225 9.63751 140.402 9.78767C140.505 9.90344 140.559 10.0546 140.553 10.2095Z" fill="white"/>
<path d="M141.992 10.6312C142.062 10.6312 142.127 10.6312 142.192 10.6312L142.338 10.5988V10.8908C142.282 10.9172 142.221 10.9336 142.159 10.9395C142.086 10.9467 142.011 10.9467 141.938 10.9395C141.451 10.9395 141.208 10.6853 141.208 10.1716V8.65207H140.845V8.48985L141.208 8.32762L141.37 7.78687H141.586V8.37088H142.322V8.65207H141.586V10.1337C141.577 10.2611 141.618 10.387 141.7 10.4852C141.734 10.5301 141.778 10.5666 141.829 10.5919C141.879 10.6172 141.935 10.6306 141.992 10.6312V10.6312Z" fill="white"/>
<path d="M143.992 8.32762C144.093 8.31836 144.194 8.31836 144.295 8.32762L144.247 8.68452C144.156 8.66427 144.064 8.65339 143.971 8.65207C143.868 8.64927 143.766 8.66969 143.673 8.71183C143.579 8.75397 143.496 8.81673 143.43 8.89541C143.283 9.06837 143.206 9.29024 143.214 9.51728V10.8692H142.83V8.37629H143.143L143.187 8.84134C143.274 8.69221 143.39 8.56174 143.527 8.4574C143.666 8.36976 143.828 8.32465 143.992 8.32762V8.32762Z" fill="white"/>
<path d="M145.133 8.37628V9.99855C145.12 10.1641 145.17 10.3286 145.274 10.4582C145.332 10.5118 145.4 10.553 145.474 10.579C145.549 10.6051 145.628 10.6155 145.707 10.6096C145.814 10.6192 145.922 10.6048 146.023 10.5674C146.124 10.53 146.215 10.4705 146.291 10.3933C146.427 10.1836 146.49 9.93432 146.469 9.68491V8.37628H146.853V10.8962H146.545L146.496 10.5609C146.418 10.6846 146.305 10.7825 146.172 10.8421C146.021 10.9129 145.857 10.9481 145.69 10.9449C145.442 10.9638 145.196 10.8863 145.004 10.7286C144.92 10.6329 144.857 10.5213 144.818 10.4004C144.779 10.2796 144.765 10.152 144.776 10.0256V8.40332L145.133 8.37628Z" fill="white"/>
<path d="M148.675 10.9449C148.518 10.9542 148.36 10.9291 148.214 10.8712C148.067 10.8133 147.935 10.724 147.826 10.6096C147.611 10.3389 147.503 9.99796 147.524 9.65245C147.5 9.30167 147.608 8.95474 147.826 8.67909C147.937 8.55735 148.074 8.46242 148.226 8.40151C148.379 8.34061 148.544 8.31533 148.708 8.3276C148.829 8.32977 148.951 8.34244 149.07 8.36546C149.169 8.38469 149.265 8.41554 149.357 8.45738L149.243 8.78724C149.153 8.75197 149.061 8.72305 148.967 8.70072C148.883 8.67603 148.796 8.65973 148.708 8.65206C148.2 8.65206 147.94 8.97651 147.94 9.63082C147.922 9.8832 147.988 10.1344 148.129 10.3446C148.193 10.4266 148.275 10.492 148.369 10.5353C148.463 10.5786 148.566 10.5985 148.67 10.5934C148.891 10.5918 149.11 10.5458 149.313 10.4582V10.8151C149.115 10.9116 148.896 10.9563 148.675 10.9449V10.9449Z" fill="white"/>
<path d="M150.725 10.6312C150.795 10.6312 150.855 10.6312 150.919 10.6312L151.071 10.5988V10.8908C151.013 10.9169 150.951 10.9333 150.887 10.9395C150.815 10.9467 150.743 10.9467 150.671 10.9395C150.179 10.9395 149.941 10.6853 149.941 10.1716V8.65207H149.578V8.48985L149.941 8.32762L150.098 7.78687H150.33V8.37088H151.06V8.65207H150.33V10.1337C150.324 10.2599 150.362 10.3843 150.438 10.4852C150.472 10.5291 150.516 10.565 150.565 10.5902C150.615 10.6154 150.669 10.6294 150.725 10.6312V10.6312Z" fill="white"/>
<path d="M151.541 7.68955C151.539 7.65404 151.545 7.61851 151.557 7.58507C151.569 7.55162 151.587 7.52095 151.612 7.49488C151.656 7.45788 151.711 7.43691 151.768 7.43539C151.828 7.43806 151.885 7.46094 151.931 7.50028C151.954 7.52562 151.972 7.55553 151.983 7.58811C151.994 7.62068 151.998 7.65523 151.996 7.68955C151.999 7.72473 151.995 7.76021 151.984 7.79373C151.972 7.82724 151.954 7.85807 151.931 7.88422C151.886 7.92415 151.828 7.94545 151.768 7.9437C151.74 7.94537 151.711 7.94094 151.684 7.93069C151.657 7.92044 151.632 7.90461 151.612 7.88422C151.587 7.85833 151.568 7.82769 151.556 7.7942C151.544 7.7607 151.539 7.72508 151.541 7.68955ZM151.958 10.8962H151.574V8.37631H151.952L151.958 10.8962Z" fill="white"/>
<path d="M154.943 9.6308C154.97 9.9778 154.868 10.3227 154.656 10.5988C154.548 10.7158 154.415 10.8076 154.268 10.8674C154.12 10.9272 153.961 10.9537 153.802 10.9448C153.589 10.9483 153.38 10.8941 153.196 10.788C153.019 10.6771 152.879 10.5175 152.791 10.3284C152.69 10.1099 152.642 9.87109 152.65 9.6308C152.626 9.28406 152.737 8.94148 152.958 8.67366C153.07 8.56215 153.202 8.47369 153.348 8.41334C153.493 8.35299 153.649 8.32193 153.807 8.32193C153.965 8.32193 154.121 8.35299 154.267 8.41334C154.412 8.47369 154.545 8.56215 154.656 8.67366C154.867 8.94591 154.97 9.2872 154.943 9.6308ZM153.023 9.6308C153.005 9.89238 153.074 10.1526 153.218 10.3716C153.281 10.4539 153.363 10.5198 153.457 10.564C153.551 10.6082 153.655 10.6294 153.758 10.6258C153.868 10.6338 153.977 10.6148 154.077 10.5705C154.177 10.5262 154.264 10.4579 154.332 10.3716C154.479 10.1537 154.549 9.89311 154.532 9.6308C154.548 9.37204 154.477 9.11534 154.332 8.90078C154.259 8.82233 154.171 8.75975 154.072 8.71696C153.974 8.67417 153.868 8.65208 153.761 8.65208C153.654 8.65208 153.548 8.67417 153.45 8.71696C153.352 8.75975 153.264 8.82233 153.191 8.90078C153.061 9.12098 153.006 9.37694 153.034 9.6308H153.023Z" fill="white"/>
<path d="M157.36 10.8962V9.27392C157.372 9.11023 157.321 8.9481 157.219 8.81968C157.162 8.76184 157.092 8.71769 157.016 8.69054C156.939 8.66338 156.857 8.65392 156.776 8.66286C156.67 8.65449 156.564 8.66954 156.465 8.70693C156.366 8.74432 156.276 8.80313 156.203 8.87917C156.061 9.08675 155.996 9.33723 156.019 9.58755V10.907H155.629V8.37626H155.943L156.003 8.72235C156.082 8.59549 156.197 8.49415 156.332 8.43034C156.48 8.3622 156.64 8.32713 156.803 8.32759C157.051 8.31036 157.296 8.38764 157.49 8.5439C157.575 8.6399 157.639 8.75226 157.679 8.87408C157.719 8.99589 157.734 9.1246 157.722 9.25229V10.8746L157.36 10.8962Z" fill="white"/>
<path d="M39.7834 28.0814L10.6691 9.12796V5.35349L39.7834 26.4267V28.0814Z" fill="#F1BC46"/>
<path d="M39.7834 31.0339L10.6691 15.936V12.1615L39.7834 29.5036V31.0339Z" fill="#F1BC46"/>
<path d="M39.7834 34.9977L26.324 30.0984V26.8972L39.7834 32.9212V34.9977Z" fill="#F1BC46"/>
<path d="M20.1539 27.0973L10.6691 23.3931V19.8457L23.8202 25.7075L20.1539 27.0973Z" fill="#F1BC46"/>
<path d="M0.0162718 21.5275L10.6692 5.35349V9.12796L0.0108643 23.6635L0.0162718 21.5275Z" fill="#F1BC46"/>
<path d="M0.0162227 25.4317L10.6691 12.1615V15.763L0 27.3838L0.0162227 25.4317Z" fill="#F1BC46"/>
<path d="M0 29.8713L10.6691 19.8457V23.3931L0.0108151 31.5693L0 29.8713Z" fill="#F1BC46"/>
<path d="M21.295 9.85791L26.3294 5.75899L26.324 -6.10352e-05L18.8453 7.91119L21.295 9.85791Z" fill="#F1BC46"/>
<path d="M39.7564 21.8897L26.3294 9.65784V13.8487L39.7888 24.5611L39.7564 21.8897Z" fill="#F1BC46"/>
<path d="M39.7889 15.8765L26.324 -6.10352e-05L26.3294 5.75899L39.7834 19.2833L39.7889 15.8765Z" fill="#F1BC46"/>
<path d="M0.0108151 35.7061L26.324 26.8972V30.0984L0 37.2256L0.0108151 35.7061Z" fill="#F1BC46"/>
<path d="M0.0108151 38.3666L26.3186 32.6941L26.3294 36.3712L0 39.9997L0.0108151 38.3666Z" fill="#F1BC46"/>
<path d="M0.0108643 41.968L26.3186 39.6158L26.3294 43.2929H0.0108643V41.968Z" fill="#F1BC46"/>
<path d="M33.8784 34.8841V37.8042L39.7834 38.929V36.5929L26.3186 32.6941L26.3294 36.3712L31.4125 37.3392V34.1811L33.8784 34.8841Z" fill="#F1BC46"/>
<path d="M33.8784 34.8842H32.1912V43.2929H33.8784V34.8842Z" fill="#F1BC46"/>
<path d="M39.7834 43.2929V40.9947L33.8784 40.3836V43.2929H39.7834Z" fill="#F1BC46"/>
<path d="M26.3294 43.2929H31.4125V40.1349L26.3186 39.6104L26.3294 43.2929Z" fill="#F1BC46"/>
<path d="M128.878 43.109C128.875 43.0458 128.892 42.9832 128.927 42.9306C128.947 42.9116 128.971 42.897 128.997 42.8877C129.023 42.8783 129.051 42.8745 129.078 42.8765C129.107 42.8744 129.135 42.8782 129.162 42.8875C129.189 42.8968 129.214 42.9114 129.235 42.9306C129.275 42.9813 129.294 43.0449 129.289 43.109C129.294 43.1714 129.274 43.2332 129.235 43.2821C129.214 43.3012 129.189 43.3159 129.162 43.3252C129.135 43.3345 129.107 43.3382 129.078 43.3361C129.052 43.3377 129.025 43.3336 129 43.3243C128.975 43.315 128.952 43.3006 128.932 43.2821C128.912 43.2587 128.896 43.2311 128.887 43.2013C128.878 43.1715 128.875 43.14 128.878 43.109V43.109Z" fill="white"/>
<path d="M129.814 43.109C129.81 43.0458 129.827 42.9832 129.862 42.9306C129.883 42.9116 129.906 42.897 129.933 42.8877C129.959 42.8783 129.986 42.8745 130.014 42.8765C130.042 42.8744 130.071 42.8782 130.098 42.8875C130.125 42.8968 130.15 42.9114 130.171 42.9306C130.21 42.9813 130.229 43.0449 130.225 43.109C130.229 43.1714 130.21 43.2332 130.171 43.2821C130.15 43.3012 130.125 43.3159 130.098 43.3252C130.071 43.3345 130.042 43.3382 130.014 43.3361C129.987 43.3377 129.96 43.3336 129.935 43.3243C129.91 43.315 129.887 43.3006 129.868 43.2821C129.847 43.2587 129.832 43.2311 129.822 43.2013C129.813 43.1715 129.81 43.14 129.814 43.109V43.109Z" fill="white"/>
<path d="M130.749 43.109C130.746 43.0458 130.763 42.9832 130.798 42.9306C130.818 42.9116 130.842 42.897 130.868 42.8877C130.894 42.8783 130.922 42.8745 130.949 42.8765C130.978 42.8744 131.006 42.8782 131.033 42.8875C131.06 42.8968 131.085 42.9114 131.106 42.9306C131.146 42.9813 131.165 43.0449 131.16 43.109C131.162 43.1711 131.143 43.2321 131.106 43.2821C131.085 43.3012 131.06 43.3159 131.033 43.3252C131.006 43.3345 130.978 43.3382 130.949 43.3361C130.923 43.3377 130.896 43.3336 130.871 43.3243C130.846 43.315 130.823 43.3006 130.803 43.2821C130.783 43.2587 130.767 43.2311 130.758 43.2013C130.749 43.1715 130.746 43.14 130.749 43.109V43.109Z" fill="white"/>
<path d="M131.766 43.2875V40.7784H132.058V43.0225H133.14V43.2875H131.766Z" fill="white"/>
<path d="M133.815 41.4056V42.6277C133.805 42.7519 133.841 42.8756 133.918 42.9738C133.962 43.0143 134.015 43.0453 134.071 43.0648C134.128 43.0844 134.188 43.092 134.248 43.0874C134.328 43.094 134.408 43.0828 134.482 43.0548C134.557 43.0267 134.625 42.9824 134.681 42.9251C134.787 42.7661 134.835 42.5749 134.816 42.3844V41.4056H135.102V43.2874H134.864L134.827 43.0387C134.767 43.1306 134.683 43.2037 134.583 43.2496C134.471 43.3011 134.349 43.3269 134.226 43.3253C134.134 43.3329 134.041 43.322 133.953 43.2932C133.864 43.2645 133.783 43.2184 133.713 43.1577C133.648 43.0848 133.599 42.9988 133.57 42.9055C133.541 42.8122 133.533 42.7138 133.545 42.6169V41.4056H133.815Z" fill="white"/>
<path d="M136.157 42.3249L135.503 41.4056H135.827L136.325 42.1302L136.817 41.4056H137.141L136.487 42.3249L137.174 43.2874H136.849L136.308 42.525L135.768 43.2874H135.443L136.157 42.3249Z" fill="white"/>
<path d="M137.812 41.4056V42.6277C137.802 42.7526 137.841 42.8764 137.92 42.9738C137.964 43.0149 138.016 43.0462 138.073 43.0658C138.129 43.0854 138.19 43.0927 138.25 43.0874C138.328 43.0931 138.407 43.0816 138.481 43.0536C138.555 43.0256 138.622 42.9817 138.677 42.9251C138.786 42.767 138.836 42.5756 138.817 42.3844V41.4056H139.099V43.2874H138.866L138.823 43.0387C138.763 43.1306 138.679 43.2037 138.579 43.2496C138.469 43.3006 138.349 43.3265 138.228 43.3253C138.131 43.3367 138.033 43.3277 137.94 43.2988C137.847 43.2699 137.761 43.2218 137.687 43.1577C137.621 43.0853 137.572 42.9995 137.542 42.9062C137.512 42.8128 137.502 42.7142 137.514 42.6169V41.4056H137.812Z" fill="white"/>
<path d="M140.564 41.3732C140.638 41.3644 140.712 41.3644 140.786 41.3732L140.748 41.6382C140.68 41.6222 140.612 41.6132 140.542 41.6111C140.468 41.6135 140.396 41.631 140.329 41.6626C140.262 41.6943 140.202 41.7393 140.153 41.795C140.043 41.9246 139.986 42.0903 139.991 42.26V43.2658H139.704V41.4056H139.937L139.969 41.7571C140.03 41.6445 140.117 41.5481 140.223 41.4759C140.322 41.4042 140.442 41.368 140.564 41.3732Z" fill="white"/>
<path d="M140.84 41.4056H141.137L141.548 42.4871C141.615 42.6638 141.671 42.8444 141.716 43.0279V43.0279C141.716 42.9684 141.764 42.8711 141.813 42.7305C141.862 42.5899 142.013 42.1519 142.278 41.4218H142.581L141.775 43.5849C141.721 43.7561 141.625 43.9106 141.494 44.0337C141.382 44.1237 141.243 44.1715 141.099 44.1689C141.014 44.1691 140.928 44.1582 140.845 44.1364V43.9093C140.915 43.9158 140.986 43.9158 141.056 43.9093C141.152 43.9075 141.245 43.8743 141.32 43.8147C141.395 43.7551 141.449 43.6725 141.472 43.5794L141.575 43.3091L140.84 41.4056Z" fill="white"/>
<path d="M145.761 40.7784V42.4006C145.768 42.5244 145.748 42.6483 145.703 42.7639C145.659 42.8796 145.59 42.9843 145.501 43.0712C145.305 43.2437 145.049 43.333 144.787 43.3199C144.66 43.3269 144.533 43.3084 144.413 43.2657C144.294 43.223 144.184 43.1569 144.09 43.0712C144.004 42.9816 143.938 42.8753 143.895 42.7591C143.852 42.6428 143.834 42.5189 143.841 42.3952V40.7729H144.133V42.3952C144.126 42.4831 144.137 42.5716 144.167 42.6546C144.197 42.7377 144.244 42.8133 144.306 42.8765C144.374 42.9366 144.454 42.9824 144.541 43.0112C144.627 43.04 144.718 43.0512 144.809 43.0441C144.897 43.0502 144.986 43.0385 145.069 43.0097C145.153 42.9809 145.23 42.9356 145.296 42.8765C145.356 42.8127 145.403 42.737 145.433 42.6541C145.463 42.5712 145.475 42.4831 145.469 42.3952V40.7729L145.761 40.7784Z" fill="white"/>
<path d="M147.67 43.2874V42.0707C147.675 41.9489 147.639 41.8288 147.567 41.7301C147.523 41.6896 147.47 41.6586 147.414 41.639C147.357 41.6195 147.297 41.6118 147.237 41.6165C147.158 41.6092 147.078 41.6195 147.003 41.6466C146.928 41.6737 146.86 41.717 146.804 41.7733C146.698 41.9323 146.65 42.1236 146.669 42.3141V43.2983H146.383V41.4056H146.615L146.658 41.6652C146.719 41.5731 146.803 41.4985 146.902 41.4489C147.012 41.3985 147.132 41.3727 147.253 41.3732C147.35 41.3627 147.447 41.3716 147.54 41.3995C147.633 41.4273 147.719 41.4735 147.794 41.5354C147.858 41.6089 147.907 41.6948 147.937 41.7878C147.966 41.8808 147.977 41.979 147.967 42.0762V43.3037L147.67 43.2874Z" fill="white"/>
<path d="M149.416 41.3786C149.525 41.3724 149.634 41.3922 149.734 41.4364C149.833 41.4806 149.921 41.5479 149.989 41.6327C150.14 41.8389 150.213 42.0918 150.195 42.3465C150.21 42.6026 150.138 42.8563 149.989 43.0657C149.921 43.1509 149.833 43.2187 149.734 43.2638C149.634 43.3089 149.525 43.33 149.416 43.3253C149.301 43.3257 149.187 43.3017 149.081 43.255C148.979 43.2118 148.89 43.1406 148.827 43.0495V43.0495L148.767 43.2874H148.562V40.6215H148.848V41.265C148.848 41.411 148.848 41.5408 148.848 41.6598C148.913 41.5697 148.998 41.4969 149.097 41.4479C149.196 41.3988 149.306 41.375 149.416 41.3786ZM149.373 41.6165C149.294 41.609 149.215 41.6203 149.142 41.6494C149.068 41.6786 149.003 41.7247 148.951 41.7841C148.858 41.9484 148.815 42.1364 148.827 42.3249C148.816 42.514 148.861 42.7022 148.957 42.8657C149.008 42.926 149.073 42.9732 149.146 43.0033C149.22 43.0334 149.299 43.0456 149.378 43.0387C149.455 43.044 149.533 43.0287 149.602 42.9945C149.671 42.9604 149.73 42.9084 149.773 42.844C149.868 42.6804 149.913 42.4923 149.903 42.3033C149.915 42.114 149.87 41.9254 149.773 41.7625C149.721 41.7119 149.657 41.6743 149.588 41.6527C149.518 41.6311 149.445 41.6261 149.373 41.6381V41.6165Z" fill="white"/>
<path d="M152.315 42.3465C152.328 42.6058 152.247 42.861 152.087 43.0657C152.006 43.1533 151.906 43.2219 151.794 43.2668C151.683 43.3116 151.564 43.3316 151.444 43.3253C151.286 43.3265 151.131 43.2854 150.995 43.2063C150.865 43.1227 150.76 43.0049 150.692 42.8657C150.616 42.696 150.581 42.5107 150.59 42.3249C150.58 42.076 150.66 41.832 150.817 41.6382C150.898 41.551 150.997 41.4826 151.107 41.4378C151.217 41.393 151.336 41.3727 151.455 41.3786C151.573 41.3724 151.69 41.393 151.799 41.4389C151.908 41.4848 152.004 41.5548 152.082 41.6436C152.245 41.8403 152.328 42.0913 152.315 42.3465V42.3465ZM150.882 42.3465C150.871 42.5378 150.922 42.7274 151.028 42.8873C151.081 42.9465 151.147 42.9938 151.22 43.0262C151.293 43.0586 151.372 43.0753 151.452 43.0753C151.532 43.0753 151.611 43.0586 151.684 43.0262C151.757 42.9938 151.823 42.9465 151.877 42.8873C151.971 42.7229 152.021 42.5364 152.021 42.3465C152.021 42.1567 151.971 41.9702 151.877 41.8058C151.825 41.7434 151.76 41.6941 151.685 41.6621C151.611 41.6302 151.53 41.6164 151.449 41.6219C151.369 41.6154 151.289 41.6288 151.215 41.6609C151.142 41.6929 151.077 41.7427 151.028 41.8058C150.916 41.9635 150.861 42.1538 150.871 42.3465H150.882Z" fill="white"/>
<path d="M153.272 42.3249L152.618 41.4056H152.942L153.434 42.1302L153.932 41.4056H154.251L153.575 42.3249L154.261 43.2874H153.942L153.402 42.525L152.861 43.2874H152.536L153.272 42.3249Z" fill="white"/>
<path d="M155.451 43.3253C155.329 43.3308 155.208 43.311 155.095 43.2673C154.981 43.2235 154.878 43.1568 154.791 43.0712C154.624 42.8741 154.539 42.6206 154.553 42.3628C154.539 42.1042 154.617 41.849 154.775 41.6436C154.849 41.5552 154.941 41.4848 155.046 41.438C155.151 41.3911 155.266 41.3689 155.381 41.3732C155.482 41.3702 155.583 41.3895 155.677 41.4296C155.77 41.4698 155.854 41.5299 155.921 41.6057C156.063 41.7791 156.136 41.9985 156.127 42.2222V42.4006H154.835C154.825 42.5834 154.885 42.7628 155.002 42.9035C155.059 42.9625 155.129 43.0084 155.205 43.0383C155.282 43.0681 155.364 43.0812 155.446 43.0766C155.653 43.0762 155.857 43.032 156.046 42.9468V43.2009C155.954 43.243 155.858 43.2738 155.759 43.2929C155.658 43.3154 155.555 43.3263 155.451 43.3253V43.3253ZM155.375 41.6382C155.308 41.6351 155.241 41.6466 155.178 41.6718C155.116 41.697 155.059 41.7353 155.013 41.7842C154.919 41.9016 154.865 42.0452 154.856 42.1951H155.84C155.85 42.0476 155.806 41.9016 155.716 41.7842C155.675 41.7348 155.622 41.6959 155.563 41.6706C155.504 41.6452 155.44 41.6341 155.375 41.6382V41.6382Z" fill="white"/>
<path d="M157.901 43.0387C157.835 43.1329 157.747 43.2087 157.643 43.2589C157.54 43.3091 157.426 43.332 157.311 43.3253C157.202 43.3302 157.093 43.3098 156.992 43.2657C156.892 43.2217 156.803 43.1551 156.733 43.0711C156.586 42.8614 156.515 42.6075 156.533 42.3519C156.513 42.0954 156.586 41.8404 156.738 41.6327C156.806 41.5466 156.893 41.478 156.993 41.4328C157.093 41.3876 157.202 41.3672 157.311 41.3732C157.424 41.3641 157.537 41.3836 157.64 41.43C157.743 41.4763 157.833 41.5479 157.901 41.6381V41.6381V41.503V40.6215H158.187V43.2874H157.955L157.901 43.0387ZM157.327 43.0874C157.406 43.0931 157.485 43.0816 157.559 43.0536C157.633 43.0256 157.7 42.9817 157.755 42.9251C157.854 42.7753 157.9 42.5961 157.884 42.4168V42.3519C157.897 42.162 157.85 41.973 157.749 41.8112C157.701 41.7553 157.641 41.7108 157.574 41.6809C157.507 41.6509 157.434 41.6364 157.36 41.6381C157.285 41.6343 157.209 41.6502 157.142 41.6843C157.075 41.7185 157.017 41.7697 156.976 41.8328C156.878 41.9954 156.831 42.1838 156.841 42.3736C156.828 42.5635 156.876 42.7525 156.976 42.9143C157.021 42.9724 157.079 43.0185 157.146 43.0487C157.213 43.0788 157.287 43.0921 157.36 43.0874H157.327Z" fill="white"/>
</svg>
