<svg width="18" height="18" viewBox="0 0 18 18" fill="none" xmlns="http://www.w3.org/2000/svg">
<path d="M8.99377 0C4.02696 0 0 3.80911 0 8.50723C0 13.2053 4.02696 17.0145 8.99377 17.0145C13.9606 17.0145 17.9875 13.2053 17.9875 8.50723C17.9875 3.80911 13.9606 0 8.99377 0ZM13.5401 6.83768C13.6773 9.70178 11.4191 12.8948 7.42136 12.8948C6.2057 12.8948 5.07474 12.5574 4.12215 11.9796C5.26436 12.1072 6.40432 11.8066 7.30894 11.1367C6.36759 11.1204 5.57239 10.5312 5.29733 9.72234C5.63535 9.78331 5.96812 9.76559 6.27016 9.6876C5.23513 9.49052 4.52012 8.6086 4.54335 7.66501C4.83415 7.81743 5.16542 7.90888 5.51843 7.91952C4.55984 7.31338 4.28853 6.11599 4.85214 5.20075C5.91341 6.43288 7.50006 7.24319 9.28907 7.32827C8.97504 6.05502 9.99658 4.82785 11.3869 4.82785C12.0052 4.82785 12.5651 5.07527 12.9578 5.47085C13.4479 5.38011 13.9096 5.20997 14.3248 4.97673C14.1637 5.45242 13.8227 5.85084 13.3782 6.10323C13.8137 6.0536 14.2289 5.94442 14.6141 5.78208C14.3263 6.19184 13.9621 6.55056 13.5401 6.83768Z" fill="white"/>
</svg>
